<?xml version="1.0" encoding="UTF-8"?>
<svg id="_레이어_1" data-name="레이어 1" xmlns="http://www.w3.org/2000/svg" viewBox="0 0 95.82 34.02">
  <defs>
    <style>
      .cls-1 {
        fill: #f6ab00;
      }

      .cls-2 {
        fill: #ef7e00;
      }

      .cls-3 {
        fill: #c85912;
      }

      .cls-4 {
        fill: #5c410c;
      }

      .cls-5 {
        fill: #82a9da;
      }
    </style>
  </defs>
  <g>
    <g>
      <path class="cls-4" d="m94.62,10.62h0s-2.29,0-2.29,0c-.08,0-.14.08-.14.17,0,.1.07.15.14.19.01,0,.03.01.06.02.14.04.42.14.42.61,0,.07,0,14.25,0,14.25,0,0,.19.03.32.03,1.04,0,1.76-.39,1.9-.93v-13.88c0-.27-.15-.43-.41-.45Z"/>
      <path class="cls-4" d="m87.43,16.48c.62-1.23,1.01-2.65,1.01-4.83,0-.1-.05-.24-.14-.34-.1-.09-.23-.15-.37-.15h-2.18c-.08,0-.14.08-.14.17,0,.1.07.15.14.19.01,0,.03.01.06.02.14.05.42.14.42.61h0c0,2.35-1.41,6.54-5.15,9.23-.08.05-.12.11-.12.17,0,.06.03.11.09.16l.72.48s.08.04.12.04.08-.02.12-.04c1.91-1.18,3.56-2.79,4.63-4.38,1.23,1.2,2.62,3.5,2.99,4.18.06.12.13.2.21.22.01,0,.03,0,.04.01.07,0,.14-.01.23-.06l1.38-.68c.11-.07.17-.13.19-.2.02-.09-.02-.18-.08-.26-.64-1.03-2.27-2.73-4.16-4.54Z"/>
    </g>
    <g>
      <g>
        <path class="cls-4" d="m67.58,17.46c.02.05.07.08.14.08.03,0,.06,0,.1-.01.44-.1,3.05-.79,5.44-2.13,1.36.46,3.12,1.36,4.3,1.92.19.09.38.18.55.26.07.03.13.05.19.05.11,0,.21-.08.28-.22l.68-1.19c.06-.12.08-.21.04-.3-.03-.08-.1-.15-.22-.2-.86-.37-2.75-.94-4.31-1.3,1.84-1.37,2.8-2.83,2.88-3.02.09-.22.08-.41,0-.54-.11-.18-.28-.25-.63-.25h-9c-.06.21-.02.48.07.72.11.32.36.66.59.73h0s5.97,0,5.97,0c-1.04,1.53-4.58,3.34-7.63,4.2-.15.04-.22.17-.1.31.11.15.66.88.66.88Z"/>
        <path class="cls-4" d="m80.89,18.45h-15.56c-.06.21-.02.49.07.72.12.32.36.66.59.73h5.99v5.94s.19.03.32.03c1.04,0,1.76-.39,1.9-.93v-5.04h6.01c.23-.08.52-.44.62-.76.11-.33.14-.54.05-.69Z"/>
      </g>
      <g>
        <path class="cls-4" d="m56.57,19.37c-2.66,0-5.04,1.24-5.04,3.57s2.38,3.57,5.04,3.57,5.05-1.24,5.05-3.57-2.42-3.57-5.05-3.57Zm0,5.65c-1.52,0-2.85-.82-2.85-2.09s1.33-2.08,2.85-2.08,2.85.82,2.85,2.08-1.33,2.09-2.85,2.09Z"/>
        <path class="cls-4" d="m64.51,17.12h-3.49c.3-.88.82-3.01.82-4.64v-1.18c0-.49-.22-.69-.74-.69h-9.75c-.06.21-.02.48.07.72.12.32.36.66.59.73h7.27q.3,0,.3.28v.47c0,1.22-.41,3.81-.48,4.31h-2.41v-3.11c0-.25-.13-.39-.38-.39h-2.33c-.08,0-.14.07-.14.17s.06.15.14.19c.01,0,.03.01.06.02.14.04.43.14.43.61h0v2.51h-5.51c-.06.21-.02.49.07.72.11.32.36.66.59.73h14.23c.23-.08.52-.44.62-.77.11-.33.14-.54.05-.69Z"/>
      </g>
    </g>
  </g>
  <g>
    <g>
      <path class="cls-4" d="m52.7,32.9c-1.37,0-2.19-.97-2.19-2.19s.98-2.25,2.45-2.25c.57,0,.95.1,1.3.22v.81c-.37-.18-.76-.3-1.19-.3-1.15,0-1.59.7-1.59,1.46,0,.83.54,1.53,1.44,1.53.25,0,.48-.04.64-.11v-1.45h.9v1.85c-.45.24-1.05.43-1.76.43Z"/>
      <path class="cls-4" d="m59.39,32.25c-.4.4-.95.64-1.63.64-.64,0-1.16-.18-1.54-.53-.45-.4-.69-.98-.69-1.65s.22-1.21.62-1.61c.39-.4.95-.64,1.61-.64.71,0,1.3.25,1.69.67.36.39.54.93.54,1.53s-.21,1.19-.6,1.59Zm-1.63-3.06c-.75,0-1.29.55-1.29,1.49s.54,1.49,1.29,1.49,1.28-.55,1.28-1.49-.53-1.49-1.28-1.49Z"/>
      <path class="cls-4" d="m64.31,32.83l-1.88-2.4c-.16-.21-.28-.38-.41-.57h-.01c.01.14.01.41.01.6v2.37h-.89v-4.33h.91l1.81,2.31c.17.22.29.39.41.56h.01c-.01-.2-.01-.49-.01-.67v-2.21h.89v4.33h-.83Z"/>
      <path class="cls-4" d="m68.47,32.9c-1.37,0-2.19-.97-2.19-2.19s.98-2.25,2.45-2.25c.56,0,.95.1,1.3.22v.81c-.37-.18-.75-.3-1.19-.3-1.15,0-1.59.7-1.59,1.46,0,.83.54,1.53,1.44,1.53.25,0,.48-.04.64-.11v-1.45h.9v1.85c-.45.24-1.05.43-1.77.43Z"/>
      <path class="cls-4" d="m77.55,32.4c-.32.32-.79.5-1.44.5s-1.11-.14-1.42-.45c-.29-.28-.43-.71-.43-1.21v-2.73h.89v2.66c0,.32.1.54.24.71.16.18.42.27.72.27.35,0,.6-.09.75-.27.15-.16.22-.39.22-.67v-2.7h.9v2.64c0,.53-.14.96-.44,1.25Z"/>
      <path class="cls-4" d="m83.4,32.9c-1.41,0-2.21-.96-2.21-2.19s.93-2.25,2.41-2.25c.44,0,.85.08,1.13.23v.8c-.39-.22-.75-.3-1.1-.3-1.02,0-1.46.71-1.46,1.46,0,.83.53,1.48,1.38,1.48.4,0,.74-.11,1.08-.3l.24.63c-.51.32-.98.44-1.47.44Z"/>
      <path class="cls-4" d="m91.17,29.24h-1.16v3.59h-.91v-3.59h-1.27v-.74h3.54l-.2.74Z"/>
      <path class="cls-4" d="m94.32,31.13v1.7h-.9v-1.71l-1.5-2.61h.99l.66,1.21c.1.18.23.43.32.62h.01c.09-.2.21-.43.31-.61l.66-1.22h.94l-1.5,2.63Z"/>
    </g>
    <path class="cls-4" d="m71.61,34.02c-.22,0-.45-.05-.64-.11l.18-.67c.12.05.27.07.41.07.43,0,.46-.33.46-.81v-3.98h.92v4.17c0,.79-.37,1.34-1.33,1.34Z"/>
    <path class="cls-4" d="m85.93,32.83v-4.32h.93v4.32h-.93Z"/>
  </g>
  <g>
    <g>
      <polygon class="cls-1" points="26.16 29.12 30.27 32.46 30.27 17.96 26.16 17.96 26.16 29.12"/>
      <path class="cls-1" d="m4.44,16.89v7.92l6.05.63v-8.55c0-.99.13-1.94.38-2.85l-5.8-1.71c-.41,1.45-.63,2.98-.63,4.57Z"/>
      <path class="cls-1" d="m21.32,6.05c2.49,0,4.77.84,6.6,2.25l3.79-4.72c-2.87-2.24-6.47-3.58-10.39-3.58-1.58,0-3.1.22-4.55.63l1.71,5.81c.91-.25,1.86-.38,2.84-.38Z"/>
    </g>
    <g>
      <path class="cls-2" d="m22.93,12.33c.45.16.86.38,1.24.65l2.58-3.21c-.79-.6-1.67-1.07-2.63-1.39l-1.19,3.95Z"/>
      <polygon class="cls-2" points="12.37 32.46 16.49 29.12 16.49 20.15 12.37 20.15 12.37 32.46"/>
      <path class="cls-2" d="m5.57,10.81l5.68,2.1c.31-.78.7-1.52,1.18-2.2l-4.9-3.55c-.79,1.12-1.45,2.35-1.95,3.65Z"/>
      <path class="cls-2" d="m38.21,24.8v-7.92c0-1.58-.22-3.11-.63-4.57l-5.8,1.72c.25.91.38,1.86.38,2.85v8.55l6.05-.63Z"/>
    </g>
    <g>
      <path class="cls-5" d="m21.32,12.05c.29,0,.58.03.85.08l.92-4.02c-.57-.12-1.16-.18-1.77-.18-2.68,0-5.09,1.18-6.73,3.05l3.17,2.64c.88-.96,2.15-1.57,3.56-1.57Z"/>
      <path class="cls-5" d="m32.92,4.62l-4.1,4.45c1.12,1.07,2,2.38,2.58,3.84l5.68-2.1c-.91-2.37-2.34-4.48-4.16-6.19Z"/>
      <polygon class="cls-5" points="1.24 28.65 10.49 28.65 10.49 26.52 1.24 26.13 1.24 28.65"/>
      <polygon class="cls-5" points="32.16 28.65 41.4 28.65 41.4 26.13 32.16 26.52 32.16 28.65"/>
    </g>
    <g>
      <path class="cls-3" d="m26.16,16.89h0v.29l4.11-.28h0s0-.01,0-.01c0-2.52-1.05-4.8-2.73-6.43l-2.79,3.03c.86.87,1.4,2.07,1.4,3.4Z"/>
      <path class="cls-3" d="m16.49,16.89c0-.98.29-1.89.79-2.65l-3.33-2.42c-.99,1.44-1.57,3.18-1.57,5.07v2.21l4.11.28v-2.48Z"/>
      <path class="cls-3" d="m17.36,6.8l-2.1-5.68c-2.64,1.02-4.96,2.67-6.76,4.78l4.65,3.87c1.13-1.3,2.58-2.33,4.21-2.98Z"/>
      <rect class="cls-3" y="29.77" width="10.49" height="3.06"/>
      <rect class="cls-3" x="32.16" y="29.77" width="10.49" height="3.06"/>
    </g>
  </g>
</svg>