<?xml version="1.0" encoding="UTF-8"?>
<svg id="_레이어_1" data-name="레이어 1" xmlns="http://www.w3.org/2000/svg" viewBox="0 0 119.86 34.02">
  <defs>
    <style>
      .cls-1, .cls-2 {
        fill: #00a755;
      }

      .cls-3 {
        fill: #023886;
      }

      .cls-4 {
        fill: #231815;
      }

      .cls-2 {
        stroke: #00a755;
        stroke-miterlimit: 10;
        stroke-width: .2px;
      }
    </style>
  </defs>
  <path class="cls-1" d="m15.22,4.36s-.96-.05-1.08-1.15c0,0-.05-1.01,1.08-1.15,0,0,1.15.17,1.09,1.15,0,0,.11,1.07-1.09,1.15m1.57-1.15c-.04-1.64-1.57-1.57-1.57-1.57-1.67.07-1.57,1.57-1.57,1.57.19,1.72,1.57,1.57,1.57,1.57,1.65,0,1.57-1.57,1.57-1.57"/>
  <polygon class="cls-1" points="18.11 2.41 19.36 4.9 19.79 4.9 20.13 1.86 19.7 1.86 19.42 4.03 18.18 1.64 17.76 1.64 17.42 4.68 17.91 4.68 18.11 2.41"/>
  <path class="cls-1" d="m22.17,3.17l-.07,1.13-.72-.35.79-.78Zm-1.79,1.9l.66-.7,1.06.43.02.94.47.2.02-3.25-.41-.21-2.26,2.4.43.2Z"/>
  <polygon class="cls-1" points="24.19 6.41 23.35 5.89 24.64 3.64 24.26 3.36 22.73 6.02 23.98 6.74 24.19 6.41"/>
  <path class="cls-1" d="m26.96,8.74l1.94-1.75-.31-.31-1.76,1.59s-.4.15-.57-.16c0,0-.25-.25-.07-.5l1.63-1.69-.31-.33-1.75,1.72s-.38.52.12,1.06c0,0,.47.62,1.1.37"/>
  <polygon class="cls-1" points="27.26 9.9 29.18 8.64 28.09 11.15 28.31 11.45 30.88 9.84 30.66 9.44 28.79 10.64 29.8 8.23 29.56 7.86 27 9.55 27.26 9.9"/>
  <polygon class="cls-1" points="28.66 12.39 31.5 11.27 31.35 10.86 28.47 12 28.66 12.39"/>
  <polygon class="cls-1" points="29.15 13.93 32.44 14.16 32.44 13.78 29.95 13.57 31.86 12.16 31.7 11.69 29.09 13.69 29.15 13.93"/>
  <polygon class="cls-1" points="29.51 16.78 29.97 16.79 29.91 15.63 30.8 15.57 30.89 16.72 31.32 16.69 31.23 15.57 32.14 15.48 32.18 16.63 32.63 16.62 32.5 14.99 29.42 15.24 29.51 16.78"/>
  <path class="cls-1" d="m31.26,20.23s-.47-.08-.89.62c0,0-.19.52-.79.19,0,0-.44-.3.07-.76l.49-.03-.02-.47-.55.02s-.65.17-.62.91c0,0-.05.9,1.03.92,0,0,.53.03.8-.51,0,0,.18-.45.45-.45,0,0,.39,0,.45.38,0,0,.1.55-.6.42v.42s.99.24,1.04-.85c0,0,.07-.72-.87-.81"/>
  <polygon class="cls-1" points="28.42 22.1 31.23 23.33 31.49 22.95 28.59 21.68 28.42 22.1"/>
  <polygon class="cls-1" points="30.31 24.13 28.02 22.87 27.77 23.22 30.09 24.57 29.78 25.04 30.15 25.25 30.98 23.94 30.62 23.67 30.31 24.13"/>
  <polygon class="cls-1" points="26.97 24.4 26.68 24.73 27.57 25.41 28.53 27.35 28.86 27 28.14 25.56 29.74 25.89 29.99 25.55 27.91 25.12 26.97 24.4"/>
  <polygon class="cls-1" points="6.09 25.52 6.6 23.83 6.21 23.4 5.7 25.18 3.8 25.2 4.09 25.62 5.98 25.63 4.81 26.54 5.05 26.91 7.53 25.05 7.24 24.72 6.09 25.52"/>
  <polygon class="cls-1" points="4.82 19.74 2.53 20.12 4.53 18.34 4.47 17.85 1.42 18.36 1.48 18.79 3.71 18.45 1.76 20.2 1.81 20.68 4.87 20.25 4.82 19.74"/>
  <path class="cls-1" d="m3.01,17.35c1.75-.08,1.58-1.57,1.58-1.57.06-1.43-1.49-1.53-1.49-1.53l-.16,1.87.42.06.12-1.33c.79.19.67.95.67.95-.2,1.17-1.21,1.05-1.21,1.05-1.15-.14-1.08-1.06-1.08-1.06.08-.75.45-.84.45-.84l.04-.53c-1.08.28-.99,1.41-.99,1.41.23,1.59,1.64,1.53,1.64,1.53"/>
  <path class="cls-1" d="m4.64,13.29s.08.44-.44.35l-.12.43h.41s.54,0,.59-.75c0,0,.1-.51-.57-.85l-2.24-.69-.14.44,2.12.7s.4.07.38.38"/>
  <path class="cls-1" d="m5.86,11.52s.52-.68-.11-1.28l-2.16-1.13-.22.4,1.98,1.06s.45.24.08.7c0,0-.12.42-.71.09l-1.85-.95-.2.4,2.06,1.1s.77.23,1.11-.38"/>
  <polygon class="cls-1" points="7.64 8.71 6.07 7.08 8.79 7.68 9.04 7.42 6.92 5.23 6.62 5.5 8.14 7.13 5.49 6.53 5.19 6.83 7.3 9.03 7.64 8.71"/>
  <path class="cls-1" d="m9.99,5.21l-.73.43-.23-1.12.95.69Zm-.41,1.82l-.19-.94.96-.58.82.55.38-.24-2.65-1.95-.37.22.63,3.21.42-.27Z"/>
  <polygon class="cls-1" points="10.74 3.33 11.82 5.74 12.27 5.54 11.19 3.15 11.7 2.89 11.52 2.52 10.07 3.19 10.24 3.54 10.74 3.33"/>
  <polygon class="cls-1" points="13.51 5.15 12.7 2.2 12.2 2.33 13.01 5.31 13.51 5.15"/>
  <path class="cls-1" d="m31.56,19.2s-.76.04-.54-1.17l1.18.11s.08,1.02-.64,1.06m-1.98-1.83l-.03.48,1.3.14-1.48.83-.02.53,1.28-.65c-.03.99,1.04.93,1.04.93.97-.01.96-1.28.96-1.28l.04-.63-3.09-.35Z"/>
  <path class="cls-1" d="m3.06,22.65s-.03-.98,1.12-1.14c0,0,1.03-.02,1.14,1.06,0,0,.07,1.05-1.18,1.13,0,0-.99,0-1.08-1.04m1.07,1.53c1.72-.04,1.68-1.61,1.68-1.61-.02-1.5-1.65-1.55-1.65-1.55-1.7.23-1.58,1.62-1.58,1.62.12,1.63,1.54,1.55,1.54,1.55"/>
  <path class="cls-3" d="m17.02,33.47C7.92,33.47.54,26.09.54,16.98S7.92.5,17.02.5s16.48,7.38,16.48,16.48-7.69,16.48-16.48,16.48m-.01-33.47C7.62,0,0,7.61,0,17.01s7.62,17.01,17.01,17.01,17.01-7.93,17.01-17.01S26.4,0,17.01,0"/>
  <path class="cls-3" d="m14.77,24.9v2.39h-.36v-2.07h-.42v-.32s.78,0,.78,0Zm1.21-.01s.83-.02.83.91c0,0-.17.59-.9,1.49h-.34l.44-.73s-.93.06-.9-.84c0,0,.03-.88.86-.83m.87,1.7l1.06-1.64h.35v1.66h.26v.32h-.25v.36h-.3v-.36h-1.12v-.33Zm2.16-1.08s-.03-.64.66-.6c0,0,.6-.06.65.61,0,0,.05.28-.22.44,0,0,.36.25.33.65,0,0,.03.71-.74.76,0,0-.71.03-.78-.74,0,0-.02-.48.32-.63,0,0-.25-.12-.22-.49m-1.97,2.8c4.51-.23,7.25-1.95,8.92-3.98H7.92c3.42,4.31,9.11,3.98,9.11,3.98"/>
  <path class="cls-3" d="m26.48,14.22H7.51v-.72h18.97v.72Zm-4.51,6.08v-5.56h.24v1.04l1.06-.97s.46.87.81.47c0,0,.15.35-.4.7v3.97s0,.61.58.43l-.54,1.03s-.54.07-.77-.97c0,0-.85.57-1.18,1.02,0,0-.96-.92-1.69-.35,0,0-.03-.71.86-1.06l-.02-1.72s-.4-.26-.57.25c0,0-.11-.06-.15-.5,0,0-.01-.83.72-.68v-1.19s-.36-1.14-1.19-.03c0,0-.19-1.41,1.03-1.39,0,0,.88-.08.93,1.21v4.17s.25.02.31.14m-6.65-1.58s-.17.1-.17-.57c0,0,.02-.63.6-.54v-1.9s-.42-.36-.78.54c0,0-.19.01-.1-.71,0,0,.22-.79.88-.75,0,0,.99-.32,1.78,2.25,0,0,.16.69,1,.19v-1.25s-.35-.01-.41-.14c0,0-.17-.26-.43-.07,0,0,.15-.32.71-.99,0,0,.62.61,1.18.1,0,0,.31.65-.75,1.08v5.44s-.64.2-1.39-2.33c0,0-.73-.59-1.4-.03l-.04,1.05s.64-.03,1.02.42l.09-.13.17.17-.65.9s-.83-.87-1.85-.17c0,0,.07-.94.97-1.12v-1.7s-.37-.1-.42.24m-4.25-3.04s-.43-.01-.67-.14c0,0-.1-.11-.68.13,0,0,.14-1.06,1.07-.93,0,0,.75.31,1.06.12,0,0-.11.79-.78.82m1.71,4.76l.1-.07.17.14s-.61.74-.68.95c0,0-.18-.06-.31-.21,0,0-.62-.58-2.1.03,0,0,1.12-2.1,2.82-.83m-2.27-2.07s-.15-.25-.58.25c0,0-.4-1.21.57-1.15l.04-.44s.1-.73.87-1c0,0-.15.33-.14.54l-.03,2.51s-.19,1.14-.94,1.08c0,0,.35-.24.21-1.79m1.88-.98l1.26-2.64c-.03.26.49.31.49.31.18.06.33-.14.33-.14.13.57-.47,1.03-.47,1.03-.14.26-.68-.03-.68-.03l-.56,1.43c.47.1.7,1.33.7,1.33.34,1.31.58,1.49.58,1.49.15.32.54.18.54.18-.29.34-.6,1.06-.6,1.06-.74.21-1.01-1.55-1.01-1.55-.19-1.15-.58-1.69-.58-1.69-.1,1.78-.9,1.5-.9,1.5.42-.15.18-3.31.18-3.31.15-1.31.91-1.31.91-1.31-.42.24-.19,2.35-.19,2.35m13.29,5.27H8.29v-.8h17.38v.8Zm-4.69-10.04h-8.05l4.04-3.83,4.02,3.83Zm-4-6.53l6.79,6.53h-1.43l-5.4-5.15-5.39,5.18h-1.35l6.78-6.57Zm.05-.45c-11.44.78-11.61,11.33-11.61,11.33.16,2.83.89,4.95,1.92,6.55h19.2c2.07-3.11,1.98-6.55,1.98-6.55-.56-11.33-11.5-11.33-11.5-11.33"/>
  <polygon class="cls-3" points="18.59 11.67 16.96 10.1 15.37 11.69 18.59 11.67"/>
  <path class="cls-3" d="m17.26,18.62c-.71-2.61-1.29-2.82-1.29-2.82v2.9c.46-.39,1.29-.08,1.29-.08"/>
  <path class="cls-3" d="m18.52,17.58c-.36.24-.82.06-.82.06.32,1.46.82,2.16.82,2.16v-2.22Z"/>
  <path class="cls-3" d="m22.91,17.07v-1.1c-.18-.12-.31-.32-.31-.32l-.39.33v.99c.14.26.69.1.69.1"/>
  <path class="cls-3" d="m22.92,18.62l-.02-1.26s-.32.15-.71.01v1.25s.28-.16.72,0"/>
  <path class="cls-3" d="m22.89,20.11l.02-1.2c-.24-.23-.74,0-.74,0l.04,1.61c0,.13.68-.4.68-.4"/>
  <path class="cls-3" d="m15.97,26.23c.55-.08.49-.49.49-.49-.04-.49-.49-.5-.49-.5-.45-.06-.5.49-.5.49-.02.46.5.5.5.5"/>
  <polygon class="cls-3" points="17.27 26.6 17.95 26.6 17.95 25.47 17.27 26.47 17.27 26.6"/>
  <path class="cls-3" d="m19.66,25.83c.31,0,.3-.31.3-.31.01-.3-.3-.34-.3-.34-.36.05-.3.33-.3.33-.03.31.3.32.3.32"/>
  <path class="cls-3" d="m19.66,27.07c.46-.1.41-.47.41-.47-.03-.43-.42-.41-.42-.41-.4,0-.41.4-.41.4-.04.42.41.48.41.48"/>
  <g>
    <path class="cls-2" d="m11.55,29.28l.46-.97s.15-.32-.24-.52c-.39-.2-1.76-.84-1.76-.84l-.16.33,1.77.84-.46.98-.72-.34.27-.58-.37-.18-.27.58-.84-.4-.15.33,2.49,1.18.15-.33-.17-.08Z"/>
    <path class="cls-2" d="m9.62,30.56c-.42-.2-.66-.56-.54-.8.12-.25.55-.29.97-.09.42.2.66.56.54.81-.12.25-.55.29-.97.09m.57-1.19c-.63-.3-1.29-.21-1.49.2-.2.41.16.98.78,1.28.63.3,1.29.21,1.49-.2.2-.41-.16-.99-.78-1.28"/>
  </g>
  <g>
    <path class="cls-1" d="m21.81,28.12l.18.35,1.8-.94.97,1.87.37-.19-1-1.92s-.14-.32-.48-.13l-1.85.97Z"/>
    <polygon class="cls-1" points="24.62 29.98 23.85 28.5 23.48 28.69 24.25 30.17 23.86 30.37 23.09 28.89 22.72 29.08 23.5 30.56 23.05 30.8 23.21 31.11 25.61 29.86 25.45 29.55 24.62 29.98"/>
  </g>
  <g>
    <polygon class="cls-2" points="14.56 30.89 11.97 30.19 11.87 30.53 12.96 30.83 12.64 32.02 13.04 32.12 13.36 30.93 14.47 31.23 14.56 30.89"/>
    <path class="cls-2" d="m13.88,28.98l.96.26.09-.34-2.28-.62-.09.34.93.25c-.04.15-.24.69-1.25.61l.03.36s.76.04,1.23-.27c0,0,.26.55,1,.9l.19-.31s-1.03-.48-.81-1.18"/>
  </g>
  <path class="cls-2" d="m17.6,29.02v1.42h-.26v-1.42h-.4v2.55h-1.03v-2.21h.75v-.34h-1.14v2.5s0,.39.33.39h1.1v.65h.4v-1.74h.26v1.74h.4v-3.54h-.4Z"/>
  <g>
    <polygon class="cls-2" points="21.64 29.01 21.32 29.1 21.07 28.2 20.66 28.31 21.3 30.59 21.71 30.48 21.42 29.47 21.74 29.39 21.64 29.01"/>
    <polygon class="cls-2" points="19.8 28.81 19.71 28.49 19.3 28.61 19.39 28.93 18.66 29.13 18.76 29.49 20.63 28.96 20.53 28.61 19.8 28.81"/>
    <path class="cls-2" d="m20.05,30.51c-.27.07-.54-.07-.61-.31-.07-.25.09-.51.36-.58.27-.07.54.07.61.31.07.25-.09.51-.35.58m-.34-1.2c-.48.13-.78.58-.66,1,.12.42.6.64,1.08.51.48-.13.78-.58.66-1-.12-.42-.6-.65-1.08-.51"/>
    <path class="cls-2" d="m19.39,31.26l.1.34,1.94-.54.26.92.42-.12-.26-.92s-.08-.36-.46-.24l-1.99.56Z"/>
  </g>
  <path class="cls-1" d="m27.03,27.44c0,.23-.19.42-.42.42s-.42-.19-.42-.42.19-.42.42-.42.42.19.42.42Z"/>
  <path class="cls-1" d="m7.94,27.44c0,.23-.19.42-.42.42s-.42-.19-.42-.42.19-.42.42-.42.42.19.42.42Z"/>
  <path class="cls-4" d="m46.42,15.44h0v-2.14h0c-.02-.43-.35-.7-.78-.71h-1.35v-1.23h2.5v-.75h-.35v-2.3c-.01-.52-.26-.75-.78-.75-.28,0-.55,0-.83,0h-3.51v.8h4.29v2.25h-4.64v.75h2.46v1.23h-2.16v.81h4.32v2.03h.83Z"/>
  <path class="cls-4" d="m41.58,24.06c.02.35.24.54.62.6.16.03.22.03.36.04h3.93v-2.93h-.87v.62h-3.12v-.64h-.45s-.1,0-.15,0h-.32v2.31h0Zm4.04.02h-3.12v-1.01h3.12v1.01Z"/>
  <path class="cls-4" d="m45.62,20.84v.44h.87v-4.56h-.87v3.34h-3.59v-.8h2.52v-1.6c-.02-.45-.25-.7-.68-.73h-2.72v.79h2.49v.78h-2.49v1.59h0c.03.46.28.71.73.75h0"/>
  <path class="cls-4" d="m62.88,14.45v-4.82s0-1.6-1.96-1.65c-1.96-.05-8.73,0-8.73,0v1.62h8.79v4.85h-3.59v-2.85h-1.85v2.85h-4.16v1.62h12.36v-1.62h-.86Z"/>
  <path class="cls-4" d="m57.56,23.36c-2.07,0-3.74-.99-3.74-2.21s1.67-2.21,3.74-2.21,3.74.99,3.74,2.21-1.68,2.21-3.74,2.21m0-5.89c-3.11,0-5.63,1.65-5.63,3.68s2.52,3.68,5.63,3.68,5.63-1.65,5.63-3.68-2.52-3.68-5.63-3.68"/>
  <polygon class="cls-4" points="77.76 17.2 65.43 17.2 65.43 18.84 70.61 18.84 70.61 24.5 72.48 24.5 72.48 18.84 77.76 18.84 77.76 17.2"/>
  <path class="cls-4" d="m72.43,9.6h4.54v-1.62h-10.81v1.62h4.41c.01.7-.24,3.35-4.78,4.21l.55,1.55s3.44-.73,5.1-2.68c0,0,1.79,2.11,5.5,2.77l.46-1.62s-5.13-.89-4.98-4.25"/>
  <path class="cls-4" d="m89.59,8.01v6.61h-1.24v-6.61h-1.88v11.87h-4.79v-10.28h3.5v-1.6h-5.34v11.66s-.03,1.84,1.52,1.81h5.11v3.03h1.88v-8.13h1.24v8.13h1.88V8.01h-1.88Z"/>
  <polygon class="cls-4" points="106.54 12.09 105.06 12.09 105.06 7.93 103.19 7.93 103.19 18.53 105.06 18.53 105.06 13.85 106.54 13.85 106.54 12.09"/>
  <polygon class="cls-4" points="98.84 9.04 98.84 7.55 96.96 7.55 96.96 9.04 93.55 9.04 93.55 10.68 102.24 10.68 102.24 9.04 98.84 9.04"/>
  <path class="cls-4" d="m97.89,16.66c-1.23,0-2.24-.93-2.24-2.08s1-2.08,2.24-2.08,2.23.93,2.23,2.08-1,2.08-2.23,2.08m0-5.59c-2.24,0-4.05,1.57-4.05,3.51s1.81,3.5,4.05,3.5,4.05-1.57,4.05-3.5-1.81-3.51-4.05-3.51"/>
  <path class="cls-4" d="m94.14,19.09v1.6h9v4.26h1.95v-4.28s.11-1.63-1.7-1.59h-9.25Z"/>
  <path class="cls-4" d="m108.11,8.62v1.82h9.32v9.64h1.9v-9.91s.12-1.58-1.65-1.55h-9.56Z"/>
  <polygon class="cls-4" points="115.59 22.12 115.59 14.48 113.7 14.48 113.7 22.12 111.67 22.12 111.67 14.48 109.78 14.48 109.78 22.12 107.49 22.12 107.49 23.72 119.86 23.72 119.86 22.12 115.59 22.12"/>
</svg>