<?xml version="1.0" encoding="utf-8"?>
<!-- Generator: Adobe Illustrator 27.6.1, SVG Export Plug-In . SVG Version: 6.00 Build 0)  -->
<svg version="1.1" id="_레이어_1" xmlns="http://www.w3.org/2000/svg" xmlns:xlink="http://www.w3.org/1999/xlink" x="0px"
	 y="0px" viewBox="0 0 1579.9 390.6" style="enable-background:new 0 0 1579.9 390.6;" xml:space="preserve">
<style type="text/css">
	.st0{fill:#EB6D8E;}
</style>
<g>
	<g>
		<path class="st0" d="M609.7,39.9c-3.6,5.7-14.1,7-15.4,7.2h-5.4v7.4h3.2c6.6,0,8.5,2.8,8.5,7.6v76.2h-23.8v8.5h23.8v56.9
			c-9.1-23.1-18.7-36.1-37.1-49c4.9-15.7,7.4-33.5,7.4-54.3V89.7l0,0L544,82.5c-3.9,6.1-15.5,7.2-15.5,7.2H520v8.5h2.1
			c6.6,0,8.5,2.5,8.5,7.4v2.1c0,49.2-2.1,84.2-45,115.9l7,7.9c28-14.2,48.8-31.6,61.8-55.4c9.3,17.2,13.4,31.8,18.7,54.3l27.6-16.3
			V261l36.1-12.1V47.1l0,0L609.7,39.9z"/>
		<path class="st0" d="M645.1,22.9v262.2l36.1-12.1V22.9l-22.9-7.2C655,21.8,645.1,22.9,645.1,22.9z"/>
		<path class="st0" d="M1063.2,44.2v240.4l36.1-12.1V44.2l-22.9-7.2C1073.1,43.1,1063.2,44.2,1063.2,44.2z"/>
		<path class="st0" d="M1027.8,60c-3.7,5.9-14.7,7.1-15.5,7.2h-5.4v7.4h3.2c6.6,0,8.5,2.8,8.5,7.6v64.7h-14.9V87.7l0,0l-26.9-7.2
			c-3.9,6.1-15.5,7.2-15.5,7.2h-68.8v8.5h2.1c6.6,0,8.5,2.5,8.5,7.4v124.1c0,13.8,4.5,23.8,25,23.8h2.1c11.2,0,33.9-1.9,40.5-6.2
			l5.5-3.6c5.5-3.6,7.4-4,13.2-4h9.5c3.6,0,4.7-1.1,4.7-4.5v-77.9h14.9v105l36.1-12.1v-181l0,0L1027.8,60z M967.7,234.6
			c0,5.1-16.5,6.4-21.6,6.4H944c-4,0-4.7-1.7-4.7-11.2V96.2h28.4V234.6z"/>
		<path class="st0" d="M268.6,210.1h-21.2V106.4h21.2v-8.5h-21.2l-26.9-7.2c-3.9,6.1-15.5,7.2-15.5,7.2h-27.6l-26.9-7.2
			c-3.9,6.1-15.5,7.2-15.5,7.2h-25.5v8.5h17c6.6,0,8.5,2.5,8.5,7.4v96.3h-25.5v8.5h159.2v-8.5H268.6z M205,210.1h-27.6V106.4H205
			V210.1z"/>
		<path class="st0" d="M343.2,262.7c44.4,0,72.2-9.8,84-17.2l-3.6-8.5c-15.9,4.5-33.1,6.2-57.3,6.2h-3.2c-14,0-16.3-1.7-16.3-11.2
			v-44.1h57.3c3.6,0,4.7-1.1,4.7-4.5v-66.2l0,0l-26.9-7.2c-3.9,6.1-15.5,7.2-15.5,7.2H298v8.5h68.3v53.7h-72.6v8.5h2.1
			c6.6,0,8.5,2.5,8.5,7.4V239c0,13.8,6.6,23.8,35.7,23.8L343.2,262.7L343.2,262.7z"/>
		<path class="st0" d="M795.4,160.6c20.8,13.2,31.4,25.7,46,48.4l27.8-27.6c-20.4-23.6-36.3-34.2-65.1-41c1.7-6.4,2.5-49.2,2.5-55.8
			V63.4l0,0l-22.9-7.2c-3.3,6.1-13.2,7.2-13.2,7.2h-17v8.5h2.1c6.6,0,8.5,2.5,8.5,7.4v8.5c-0.7,54.6-23.3,110-74.5,112.7l4.2,8.5
			C748.9,202.4,780.4,184.1,795.4,160.6z"/>
		<path class="st0" d="M1167,113.8c-33.7,0-58.6,20.6-58.6,75.1s24.8,75.1,58.6,75.1c33.7,0,58.6-20.6,58.6-75.1
			S1200.7,113.8,1167,113.8z M1167,255.6c-14,0-18.2-16.1-18.2-66.6s4.2-66.6,18.2-66.6s18.3,16.1,18.3,66.6
			C1185.2,239.5,1181,255.6,1167,255.6z"/>
		<path class="st0" d="M439.6,72.4h-11.7v7.4h3.2c6.6,0,8.5,2.5,8.5,7.4v236.5c0,4.7-1.1,6.2-6.2,8.3l-8.1,3.4c-9.8,4-22.7,7-41,7
			h-2.1c-11.9,0-15.3-5.9-15.3-15.5v-35.4h-53.1v8.5h2.1c6.6,0,8.5,2.5,8.5,7.4v26.1c0,13.8,8.7,23.8,31.4,23.8h2.1
			c35.9,0,54.7-7.6,71.5-14.4l19.3-7.9c2.8-1.1,5.9-1.7,11.7-1.7h16.8c3.6,0,4.7-1.1,4.7-4.5V72.4L455,65.2
			C451.2,71.3,439.6,72.4,439.6,72.4z"/>
		<path class="st0" d="M1237,75.5h-11.7v7.4h3.2c6.6,0,8.5,2.5,8.5,7.4V357l42.4-8.2V75.5l-26.9-7.2
			C1248.6,74.4,1237,75.5,1237,75.5z"/>
		<path class="st0" d="M1402.5,119.8l-26.9-7.2c-3.9,6.1-15.5,7.2-15.5,7.2h-60.3v8.5h60.3v8.5c0,13.8-1.3,26.5-4,38H1302v8.5h51.6
			c-9.1,28.9-28.9,50.5-62.8,68.3l5.9,7.9c60.5-15.7,105.9-63.5,105.9-131.1L1402.5,119.8L1402.5,119.8z"/>
		<path class="st0" d="M1447.7,94.4c-3.9,6.1-15.5,7.2-15.5,7.2h-11.7v7.4h3.2c6.6,0,8.5,2.5,8.5,7.4v68.9h-30.3v8.5h30.3v115.4
			l42.4-15.4V101.6L1447.7,94.4z"/>
		<path class="st0" d="M275,250c-7.3,1.5-14.1,2.2-20.7,2.2H81.5v6.5h216.9l-7.4-16.8C287.6,245.8,282.2,248.5,275,250z"/>
		<path class="st0" d="M869.6,242.8c-7.3,1.5-14.1,2.2-20.7,2.2H687v6.5h206l-7.4-16.8C882.2,238.6,876.8,241.3,869.6,242.8z"/>
	</g>
	<path class="st0" d="M790,390.6c-210.6,0-408.6-20.2-557.6-56.8C82.9,297,0.5,247.8,0.5,195.3c0-52.5,82.4-101.7,231.9-138.5
		C381.4,20.2,579.4,0,790,0s408.6,20.2,557.6,56.8c149.6,36.8,231.9,86,231.9,138.5c0,52.5-82.4,101.7-231.9,138.5
		C1198.6,370.4,1000.6,390.6,790,390.6z M790,3C579.6,3,381.9,23.1,233.2,59.7c-72.2,17.8-128.9,38.4-168.5,61.4
		c-40.6,23.6-61.2,48.5-61.2,74.1c0,25.6,20.6,50.5,61.2,74.1c39.6,23,96.2,43.7,168.5,61.4c148.7,36.6,346.5,56.7,556.8,56.7
		s408.1-20.1,556.8-56.7c72.2-17.8,128.9-38.4,168.5-61.4c40.6-23.6,61.2-48.5,61.2-74.1c0-25.6-20.6-50.5-61.2-74.1
		c-39.6-23-96.2-43.7-168.5-61.4C1198.1,23.1,1000.4,3,790,3z"/>
</g>
</svg>
