<?xml version="1.0" encoding="UTF-8"?>
<svg id="_レイヤー_1" data-name="レイヤー 1" xmlns="http://www.w3.org/2000/svg" viewBox="0 0 249.34 98">
  <defs>
    <style>
      .cls-1 {
        fill: #00c73c;
      }

      .cls-2 {
        fill: #fff;
      }

      .cls-3 {
        fill: #333;
      }
    </style>
  </defs>
  <g>
    <path class="cls-3" d="m126,21h20c3.15,0,5.89.4,8.22,1.2,2.32.8,4.25,1.92,5.77,3.34,1.52,1.42,2.66,3.12,3.41,5.09.75,1.97,1.12,4.09,1.12,6.37v1.63c0,2.28-.4,4.42-1.2,6.41-.8,1.99-1.98,3.74-3.52,5.24-1.55,1.5-3.47,2.69-5.77,3.57-2.3.88-4.97,1.32-8.02,1.32h-12.32v21.83h-7.69V21Zm7.69,6.68v20.82h11.03c8.08,0,12.12-3.34,12.12-10.02v-1.4c0-3.21-.97-5.58-2.91-7.11-1.94-1.53-4.73-2.29-8.35-2.29h-11.88Z"/>
    <path class="cls-3" d="m184.25,77.62c-4.3,0-7.7-1.06-10.21-3.18-2.51-2.12-3.77-5.05-3.77-8.78v-2.1c0-3.62,1.22-6.58,3.65-8.85,2.43-2.28,6.37-3.42,11.81-3.42h10.8v-2.49c0-2.85-.69-4.96-2.06-6.33-1.37-1.37-3.61-2.06-6.72-2.06-2.49,0-4.65.39-6.49,1.17-1.84.78-3.74,1.81-5.71,3.11l-3.73-5.59c2.07-1.45,4.4-2.71,6.99-3.77,2.59-1.06,5.59-1.59,9.01-1.59,2.38,0,4.56.3,6.52.89,1.97.6,3.66,1.48,5.09,2.64,1.42,1.17,2.54,2.59,3.34,4.27.8,1.68,1.2,3.59,1.2,5.71v29.75h-7.22v-5.13h-.08c-.42.78-.97,1.49-1.67,2.14-.7.65-1.46,1.2-2.29,1.67-1.14.62-2.37,1.1-3.69,1.44-1.32.34-2.91.5-4.78.5Zm12.27-19.96h-10.64c-2.95,0-5.06.57-6.33,1.71-1.27,1.14-1.9,2.72-1.9,4.74v1.09c0,2.07.72,3.57,2.17,4.5s3.18,1.4,5.2,1.4c1.86,0,3.48-.22,4.85-.66,1.37-.44,2.63-1.1,3.77-1.98,1.04-.78,1.77-1.67,2.21-2.68.44-1.01.66-2.32.66-3.92v-4.19Z"/>
    <path class="cls-3" d="m230.23,68.46l11.18-33.94h7.92l-22.06,60.04-6.83-2.41,5.51-14.52-15.46-43.11h8.16l11.26,33.94h.31Z"/>
  </g>
  <g>
    <rect class="cls-1" width="98" height="98"/>
    <polygon class="cls-2" points="56.79 71.43 40.98 48.21 40.98 71.43 24.5 71.43 24.5 26.57 41.21 26.57 57.02 49.79 57.02 26.57 73.5 26.57 73.5 71.43 56.79 71.43"/>
  </g>
</svg>