<?xml version="1.0" encoding="UTF-8"?>
<svg id="_레이어_1" data-name="레이어 1" xmlns="http://www.w3.org/2000/svg" viewBox="0 0 120.07 98.04">
  <defs>
    <style>
      .cls-1 {
        fill: #666464;
      }

      .cls-2 {
        fill: #252525;
      }

      .cls-3 {
        fill: #11997c;
      }

      .cls-4 {
        fill: #70c3ab;
      }
    </style>
  </defs>
  <rect class="cls-3" x="85.17" y="1.09" width="23.67" height="4.73"/>
  <rect class="cls-3" x="90.1" y="8.76" width="17.34" height="4.68"/>
  <rect class="cls-3" x="85.17" y="13.44" width="4.94" height="3.36"/>
  <rect class="cls-3" x="90.1" y="16.8" width="19.62" height="4.73"/>
  <rect class="cls-3" x="30.1" y="0" width="4.94" height="44.43"/>
  <g>
    <polygon class="cls-3" points="42.72 1.09 42.72 5.78 49.68 5.78 50.64 1.09 42.72 1.09"/>
    <polygon class="cls-3" points="48.95 9.36 42.44 41.28 47.25 41.28 54.46 5.78 49.68 5.78 48.95 9.36"/>
    <polygon class="cls-3" points="55.42 1.1 54.47 5.78 56.7 5.78 55.74 1.1 55.42 1.1"/>
    <polygon class="cls-3" points="68.29 5.78 68.29 1.1 60.53 1.1 61.48 5.78 68.29 5.78"/>
    <polygon class="cls-3" points="61.46 5.78 56.7 5.78 63.64 41.28 68.7 41.28 61.46 5.78"/>
  </g>
  <rect class="cls-3" x="72.83" y="0" width="4.94" height="44.43"/>
  <g>
    <rect class="cls-3" x="109.82" y="8.85" width="4.77" height="4.68"/>
    <rect class="cls-3" x="114.59" width="4.94" height="8.85"/>
    <rect class="cls-3" x="114.59" y="13.53" width="4.94" height="7.89"/>
  </g>
  <g>
    <polygon class="cls-2" points="85.04 54.71 85.04 59.39 89.74 59.39 91.35 54.71 85.04 54.71"/>
    <polygon class="cls-2" points="89.21 60.92 83.81 76.52 88.73 76.52 93.76 62.09 94.7 59.39 89.74 59.39 89.21 60.92"/>
    <polygon class="cls-2" points="96.33 54.71 94.7 59.39 98.99 59.39 97.36 54.71 96.33 54.71"/>
    <polygon class="cls-2" points="109.7 54.71 102.34 54.71 103.95 59.39 109.7 59.39 109.7 54.71"/>
    <polygon class="cls-2" points="104.91 62.09 103.95 59.39 98.99 59.39 104.83 76.52 110.06 76.52 104.91 62.09"/>
  </g>
  <g>
    <rect class="cls-2" x="109.49" y="62.45" width="5.65" height="4.68"/>
    <rect class="cls-2" x="115.13" y="53.62" width="4.94" height="8.84"/>
    <rect class="cls-2" x="115.13" y="67.14" width="4.94" height="16.12"/>
  </g>
  <g>
    <rect class="cls-2" y="79.3" width="7.58" height="4.68"/>
    <rect class="cls-2" x="7.58" y="83.98" width="4.94" height="14.06"/>
    <rect class="cls-2" x="12.51" y="79.3" width="13.12" height="4.68"/>
    <rect class="cls-2" x="25.64" y="83.98" width="4.94" height="14.06"/>
    <rect class="cls-2" x="30.57" y="79.3" width="7.66" height="4.68"/>
  </g>
  <path class="cls-2" d="m34.49,60.04c-.74-1.41-1.86-2.57-3.36-3.46-2.6-1.51-6.53-2.25-12.01-2.25s-9.41.74-12.02,2.26c-1.49.89-2.62,2.05-3.36,3.48-.66,1.32-1,2.9-1,4.67s.34,3.35,1.01,4.69c.74,1.41,1.86,2.57,3.36,3.46,2.61,1.51,6.53,2.25,12.01,2.25s9.41-.74,12.02-2.26c1.49-.89,2.62-2.05,3.35-3.46.7-1.33,1.05-2.91,1.05-4.69s-.35-3.36-1.05-4.69Zm-3.68,4.69c0,1.92-.68,3.27-2.08,4.1-1.82,1.07-5.04,1.62-9.59,1.62s-7.8-.55-9.63-1.61c-1.4-.84-2.08-2.18-2.08-4.1s.68-3.27,2.08-4.1c1.84-1.08,5.09-1.62,9.64-1.62s7.78.54,9.59,1.62c1.4.84,2.08,2.18,2.08,4.1Z"/>
  <g>
    <rect class="cls-2" x="71.64" y="53.61" width="4.93" height="8.84"/>
    <rect class="cls-2" x="71.64" y="67.14" width="4.93" height="16.12"/>
    <rect class="cls-2" x="76.57" y="62.45" width="5.25" height="4.68"/>
  </g>
  <polygon class="cls-1" points="52.81 54.67 51.6 58.25 51.3 59.13 51.21 59.39 46.25 59.39 47.82 54.67 52.81 54.67"/>
  <polygon class="cls-1" points="96.33 54.71 94.7 59.39 89.74 59.39 91.35 54.71 96.33 54.71"/>
  <polygon class="cls-1" points="103.95 59.39 98.99 59.39 97.36 54.71 102.34 54.71 103.95 59.39"/>
  <g>
    <polygon class="cls-2" points="44.69 64.07 40.53 76.52 45.46 76.52 49.64 64.07 51.21 59.39 46.25 59.39 44.69 64.07"/>
    <polygon class="cls-2" points="62.09 64.07 60.45 59.39 58.8 54.67 53.57 54.67 52.81 54.67 51.6 58.25 51.3 59.13 51.21 59.39 55.22 59.39 56.86 64.07 61.25 76.52 66.48 76.52 62.09 64.07"/>
  </g>
  <polygon class="cls-1" points="58.95 98.04 51.97 98.04 51.89 97.96 47.29 93.35 54.26 93.35 58.95 98.04"/>
  <polygon class="cls-1" points="102.45 98.04 95.47 98.04 95.39 97.96 90.79 93.35 97.76 93.35 102.45 98.04"/>
  <rect class="cls-1" x="71.64" y="62.45" width="4.93" height="4.68"/>
  <rect class="cls-1" x="25.64" y="79.3" width="4.94" height="4.68"/>
  <rect class="cls-1" x="7.58" y="79.3" width="4.94" height="4.68"/>
  <rect class="cls-1" x="115.13" y="62.45" width="4.94" height="4.68"/>
  <g>
    <rect class="cls-3" x="4.94" y="1.1" width="17.55" height="4.73"/>
    <polygon class="cls-3" points="11.92 36.59 16.6 41.28 24.55 41.28 24.55 36.59 11.92 36.59"/>
    <polygon class="cls-3" points="4.94 29.61 4.94 5.83 0 5.83 0 24.69 0 24.69 0 31.66 4.94 36.59 11.92 36.59 4.94 29.62 4.94 29.61"/>
  </g>
  <rect class="cls-3" x="85.17" y="16.8" width="4.94" height="4.73"/>
  <g>
    <polygon class="cls-3" points="119.87 39.75 119.87 44.43 94.17 44.43 89.48 39.75 87.2 37.45 87.2 36.55 93.27 36.55 96.45 39.75 119.87 39.75"/>
    <polygon class="cls-3" points="119.53 29.5 119.53 36.55 93.27 36.55 92.13 35.39 88.56 31.82 114.59 31.82 114.59 29.5 119.53 29.5"/>
    <rect class="cls-3" x="87.19" y="24.82" width="27.4" height="4.68"/>
  </g>
  <polygon class="cls-4" points="16.6 41.28 9.62 41.28 4.94 36.59 11.92 36.59 16.6 41.28"/>
  <rect class="cls-4" x="85.17" y="8.76" width="4.94" height="4.68"/>
  <rect class="cls-4" x="0" y="1.1" width="4.94" height="4.73"/>
  <rect class="cls-4" x="114.59" y="8.85" width="4.94" height="4.68"/>
  <rect class="cls-4" x="114.59" y="24.82" width="4.94" height="4.68"/>
  <polygon class="cls-4" points="93.27 36.55 87.2 36.55 87.2 31.82 88.56 31.82 92.13 35.39 93.27 36.55"/>
  <polygon class="cls-4" points="55.42 1.09 54.46 5.78 49.68 5.78 50.64 1.09 55.42 1.09"/>
  <polygon class="cls-4" points="61.48 5.78 56.7 5.78 55.74 1.1 60.53 1.1 61.48 5.78"/>
  <g>
    <polygon class="cls-2" points="97.76 93.35 102.45 98.04 120.07 98.04 120.07 93.35 97.76 93.35"/>
    <polygon class="cls-2" points="93.42 89.01 93.42 83.27 88.49 83.27 88.49 84.08 88.49 91.06 88.92 91.49 90.79 93.35 93.42 93.35 97.75 93.35 97.76 93.35 95.9 91.49 93.42 89.01"/>
  </g>
  <g>
    <polygon class="cls-2" points="54.26 93.35 58.95 98.04 73.19 98.04 73.19 98.04 78.12 98.04 78.12 98.04 78.12 93.35 78.12 93.35 54.26 93.35"/>
    <polygon class="cls-2" points="49.92 89.01 49.92 83.27 45 83.27 45 84.08 45 91.06 45.43 91.49 47.29 93.35 49.84 93.35 54.18 93.35 54.26 93.35 52.4 91.49 49.92 89.01"/>
  </g>
</svg>