<?xml version="1.0" encoding="utf-8"?>
<!-- Generator: Adobe Illustrator 27.5.0, SVG Export Plug-In . SVG Version: 6.00 Build 0)  -->
<svg version="1.1" id="_레이어_1" xmlns="http://www.w3.org/2000/svg" xmlns:xlink="http://www.w3.org/1999/xlink" x="0px"
	 y="0px" viewBox="0 0 320.8 75.7" style="enable-background:new 0 0 320.8 75.7;" xml:space="preserve">
<style type="text/css">
	.st0{fill:#111111;}
</style>
<g>
	<path class="st0" d="M21.8,12.8c5.8-0.2,19.4-0.8,25.3-1.3c0.8-0.1,1.3,0,1.6,0.2c0.2,0.2,0.3,0.6,0.3,1.5c0,5.9-0.9,11.9-2.7,17.9
		l-0.1,0.4l2.6,1.3l0.2-0.4c3.4-6.7,5.6-14.6,5.6-20.1c0-0.9-0.8-1.8-1.5-2.4c-1.6-1.5-4.3-3-5.9-2.8C41.5,7.4,28.1,8.3,22,8.3
		c-2.4,0-4.4-0.4-5.7-1.2l-0.4-0.2l-1.6,1.7l0.1,0.3C15.4,10.7,17.8,12.9,21.8,12.8L21.8,12.8z"/>
	<path class="st0" d="M68.2,35.7c-2.3-0.5-5.4-0.4-8.7-0.3l-23.1,1c-0.6,0-1.4,0-2.2,0.1c0.4-1.5,0.7-3.1,0.8-4.3l0.2-4.8
		c0-0.3,0-0.6,0.1-1c0-0.4,0.1-0.7,0.1-1.1c0-0.8-0.6-1.4-1.8-1.9c-1.7-0.8-5.1-1.1-7-0.9l-0.3,0l-0.8,2.1l0.5,0.1
		c1.6,0.4,2.9,0.8,3.7,1.4c0.6,0.4,0.6,0.8,0.6,2.1v8.4l-0.5,0c-8.1,0.4-19.2,0.9-20.6,0.8c-2.4-0.1-5.1-0.8-7.1-1.9l-0.3-0.2L0,37
		l0.2,0.4c1.6,2.3,5.5,4.7,9.1,4.7c0.2,0,0.4,0,0.6,0c4.2-0.4,19.6-1.6,29-2c9.8-0.4,18.5-0.5,21.3-0.3c3,0.2,5.9,0.7,6.9,1.2l0.2,0
		c1.4,0.2,2.6-0.1,3.4-0.8c0.5-0.4,0.8-1,0.9-1.6C71.7,37.2,70.4,36.2,68.2,35.7L68.2,35.7z"/>
	<path class="st0" d="M39.6,48.7l-0.3-0.1L37.2,51l0.7,0.3c5.3,2,8.3,5.6,8.3,10.1c0,5.6-4.3,9.3-10.8,9.3s-10.8-3.7-10.8-9.3
		c0-4.5,3.2-8.1,9-9.9c2-0.6,4.2-1.6,4.2-3.7c0-1.7-1.6-3.2-4.5-4.4L33,43.2l-1.4,2l0.4,0.3c1,0.7,1.4,1.3,1.3,1.6
		c-0.1,0.3-0.6,0.5-0.8,0.6C24.3,50,19.5,55,19.5,61.3c0,7.7,6.7,13.2,15.9,13.2S51.3,69,51.3,61.3C51.3,55.2,47.3,50.8,39.6,48.7
		L39.6,48.7z"/>
	<path class="st0" d="M152.5,37.9c-2.3-0.5-5.4-0.4-8.7-0.3l-23.1,1c-2,0.1-4.7,0.2-7.6,0.4c-7.3,0.4-16.4,0.8-19.2,0.8
		c-2.4-0.1-5.6-0.9-7.6-2L86,37.6l-1.8,1.6l0.2,0.4c1.5,2.2,5.6,5,9.5,4.7l0.8-0.1c3.9-0.3,14.2-1.2,22.9-1.7v33.2h2.5l0.1-0.3
		c0.9-1.9,2.4-6.7,2.4-12.8V42.2c0.2,0,0.3,0,0.5,0c9.8-0.4,18.5-0.5,21.3-0.3c3,0.2,6,0.7,6.9,1.2l0.2,0c1.4,0.2,2.6-0.1,3.4-0.8
		c0.5-0.4,0.8-1,0.9-1.6C156,39.4,154.7,38.4,152.5,37.9L152.5,37.9z"/>
	<path class="st0" d="M96.9,34.8c11.8-4.2,29.1-13.2,35.6-18.5c2.5-2.1,3.6-3.4,3.6-4.5c0-1.9-4.5-5-6.7-5c-1.8,0-5.9,0.4-10.2,0.8
		c-4.5,0.4-9.2,0.9-11.3,0.9c-1.6,0-3.4-0.4-5.2-1l-0.3-0.1L100.5,9l0.3,0.4c1.2,1.6,3.4,3.4,6.2,3.4c1.9,0.1,8.3-0.5,14-1
		c3.6-0.3,6.6-0.6,8-0.7c0.3,0,0.9,0,1.2,0c-0.1,0.2-0.4,0.5-1,1.2c-5.6,5.6-22.8,15.3-34,19.9l-0.6,0.3l2,2.4L96.9,34.8L96.9,34.8z
		"/>
	<path class="st0" d="M127.1,21.6l-0.2-0.1l-4.1,2l1.3,0.4c4.1,1.1,14.8,5.3,15.7,8l0.1,0.3l0.3,0.1c0.2,0,0.5,0.1,0.7,0.1
		c0.9,0,1.8-0.3,2.4-0.9c0.7-0.6,0.9-1.5,0.8-2.5c-0.4-2.3-3.4-3.3-7.6-4.6c-1.5-0.5-3.1-0.9-4.7-1.3
		C130.3,22.5,128.7,22.1,127.1,21.6L127.1,21.6z"/>
	<path class="st0" d="M191.5,24.6l-2.4,2.4l0.5,0.3c3.1,2,11,8.9,11.5,12.1l0,0.3l0.3,0.1c0.3,0.1,0.6,0.2,0.9,0.2
		c0.7,0,1.5-0.3,2.1-0.7c0.9-0.7,1.3-1.7,1.1-2.9c-0.3-2.3-2.4-3.7-4.4-5.1c-0.4-0.3-0.9-0.6-1.3-0.9c-1.9-1.4-4.5-3.2-8.2-5.6
		L191.5,24.6L191.5,24.6z"/>
	<path class="st0" d="M216,56l2.6,0.6l0.2-0.2c1.7-1.9,3-5.2,3-7.5c0-1.7-3.6-3.8-5.8-3.8c-1.3,0-7.5,0.3-11.4,0.6
		c-4.4,0.2-8.5,0.4-10.7,0.4c-2,0-3.6-0.4-4.7-1l-0.3-0.2l-1.4,1.3l0.1,0.3c0.5,2.2,2.9,3.9,5.4,3.8c0.5,0,1.9-0.1,3.7-0.2
		c5.8-0.3,16.7-0.7,19.5-0.7c0.5,0,0.5,0.1,0.5,0.4c0,1.9-0.2,4.5-0.5,5.9L216,56L216,56z"/>
	<path class="st0" d="M223.4,69.6c-1.5-0.6-3.3-0.4-5-0.1c-2.3,0.4-4,0.6-5.4,0.6c-4.6,0.2-13.6,0.5-17,0.5c-0.6,0-0.9-0.4-0.9-1.1
		V66c0-2.1-1.3-3.7-3.2-4.1l-0.2,0l-2.1,0.9l0.2,0.5c0.2,0.5,0.4,1.5,0.4,2.9l-0.1,4.6c0,1.9,3,3.7,5.3,3.7c2.5,0,11.3-0.2,18.4-0.4
		c4.8-0.1,9-0.2,9.8-0.2l0.2,0c0.9-0.4,1.4-1.1,1.4-2C225.1,70.8,224.4,70,223.4,69.6L223.4,69.6z"/>
	<path class="st0" d="M194.7,15.5c0.8-1.5,1.5-3-0.5-4.8c-2-1.8-5.7-3.1-8.6-3.5l-0.3-0.1L184,9l0.5,0.3c1.1,0.6,2.7,1.6,3.7,2.7
		c0.9,0.9,1.1,1.5,0.2,3.8c-2.5,6.7-10.8,17.2-19.7,25l-0.4,0.3l2.1,2.2l0.4-0.3c10-7.5,20-18.9,23.8-27.3L194.7,15.5L194.7,15.5z"
		/>
	<path class="st0" d="M235.3,22.2c-1-0.8-3.6-1.6-5.7-1.1c-0.7,0.1-1.5,0.3-2.3,0.5c-1.7,0.4-3.6,0.9-5.9,1.1l0.1-8.9
		c0-1.3,0.1-2.4,0.1-3.5c0.1-0.9,0.1-1.8,0.1-2.7c0-3.6-6.8-7.1-11.2-7.6l-0.3,0l-1.3,2l0.5,0.2c3,1.6,5.8,4.1,6.7,5.7
		c0.4,0.8,0.5,2.2,0.5,4.1v30.7h2.5l0.1-0.3c0.8-1.7,2.2-7.4,2.2-12v-4.4h0.2c4.1-0.2,9.8-0.6,11.7,0.1l0.2,0.1l0.2-0.1
		c0.9-0.4,2.1-1.8,2.1-3.1C235.8,22.8,235.6,22.5,235.3,22.2L235.3,22.2z"/>
	<path class="st0" d="M199.9,61.3c2.6-0.1,5.4-0.2,7.9-0.3l1.5,0c3.6-0.1,8.6-0.2,10.8,0.3l0.1,0h0.1c1.1-0.1,1.9-1,1.9-2
		c0-0.4-0.2-1.9-2.5-2.3c-1.3-0.3-2.6-0.3-4.4-0.1c-2.9,0.3-6.2,0.5-11,0.7c-4.3,0.2-8.6,0.2-10.2,0.2c-2.8-0.2-4.6-0.4-5.9-1.2
		l-0.4-0.2l-1.2,1.6l0.1,0.3c1.1,2.1,3.4,3.5,5.8,3.5C194.1,61.6,196.8,61.5,199.9,61.3L199.9,61.3z"/>
	<path class="st0" d="M271.3,20.8c1.4,0,4-0.1,6.9-0.3c2.7-0.1,5.7-0.3,8.4-0.4l2.2-0.1c4.9-0.1,9.1-0.3,11.3,0.2l0.1,0h0.1
		c1.1-0.1,1.9-0.9,1.9-2c0-0.4-0.2-1.9-2.5-2.4c-1.3-0.3-2.6-0.3-4.4-0.1c-2.5,0.3-6.8,0.5-12.3,0.7c-4.1,0.2-8.6,0.3-10.3,0.2
		c-2.8-0.2-4.6-0.4-5.9-1.1l-0.4-0.2l-1.2,1.5l0.2,0.3C266.7,19.5,268.9,20.8,271.3,20.8L271.3,20.8z"/>
	<path class="st0" d="M272,9.8c0.4,0,1.5-0.1,2.9-0.1c6.1-0.2,18.8-0.8,21.7-0.8c0.5,0,0.5,0.1,0.5,0.4c0,1.6-0.2,3.8-0.5,5.2
		l-0.1,0.5l2.5,0.6l0.2-0.2c1.7-1.5,3.1-4.9,3.1-6.7c0-1.7-3.6-3.8-5.8-3.8c-0.8,0-4.7,0.2-8.4,0.4c-2.3,0.1-4.5,0.2-5.9,0.3
		c-1.4,0.1-2.6,0.1-3.7,0.2c-2.3,0.1-4,0.2-5.5,0.2c-2,0-3.6-0.4-4.7-1.1L268,4.6l-1.4,1.2l0.1,0.3C267.2,8.2,269.5,9.9,272,9.8
		L272,9.8z"/>
	<path class="st0" d="M317.4,38c-2.3-0.5-5.4-0.4-8.7-0.3l-21,0.9c0.4-1.9,0.5-4.5,0.5-6.1v-0.6c3.2-0.1,6.4-0.2,9-0.3
		c3-0.1,5.2-0.1,5.8-0.2l0.2,0c0.9-0.4,1.4-1.1,1.4-2c0-0.9-0.7-1.7-1.7-2.1c-1.5-0.6-3.3-0.4-5-0.1c-0.6,0.1-1.2,0.2-1.7,0.3
		c-1.3,0.2-2.6,0.5-3.6,0.5c-4.5,0.3-14.3,0.6-17.8,0.6c-0.6,0-1-0.3-1-1v-2.4c0-2.1-1.3-3.7-3.2-4.1l-0.2,0l-2.1,0.9l0.2,0.5
		c0.2,0.5,0.4,1.5,0.4,2.9l-0.1,3.4c0,0.6,0.3,1.3,0.9,1.9c1.1,1,3,1.8,4.5,1.7l9.3-0.3v6.8c-9,0.5-23.3,1.1-24.9,1
		c-2.4-0.1-5.1-0.8-7.1-1.9l-0.3-0.2l-1.8,1.5l0.2,0.4c1.5,2.3,5.5,4.7,9,4.7c0.2,0,0.4,0,0.6,0c4.2-0.4,19.6-1.6,29-2
		c9.8-0.4,18.5-0.5,21.3-0.3c3,0.2,6,0.7,6.9,1.2l0.2,0c1.4,0.2,2.6-0.1,3.4-0.8c0.5-0.4,0.8-1,0.9-1.6
		C320.9,39.5,319.6,38.5,317.4,38L317.4,38z"/>
	<path class="st0" d="M290.2,49.7l-0.3-0.1l-2.1,2.3l0.7,0.2c5.4,1.8,8.3,5.3,8.3,9.7c0,5.1-4.5,8.7-10.9,8.7s-10.9-3.6-10.9-8.7
		c0-5.6,4.9-8.3,9.1-9.6c2.9-0.9,4.2-2.2,4.2-3.8c0-1.8-1.8-3.4-4.6-4l-0.3-0.1l-1.4,2l0.4,0.3c1.3,0.9,1.3,1.3,1.3,1.4
		c0,0.1-0.2,0.3-0.8,0.5c-8.3,2.1-13.2,7-13.2,13.2c0,7.2,6.9,12.6,16.1,12.6s16.1-5.4,16.1-12.6C302.2,55.9,297.9,51.6,290.2,49.7
		L290.2,49.7z"/>
</g>
</svg>
