<?xml version="1.0" encoding="utf-8"?>
<!-- Generator: Adobe Illustrator 27.5.0, SVG Export Plug-In . SVG Version: 6.00 Build 0)  -->
<svg version="1.1" id="_레이어_1" xmlns="http://www.w3.org/2000/svg" xmlns:xlink="http://www.w3.org/1999/xlink" x="0px"
	 y="0px" viewBox="0 0 414.1 44.3" style="enable-background:new 0 0 414.1 44.3;" xml:space="preserve">
<style type="text/css">
	.st0{fill:#111111;}
</style>
<g>
	<path class="st0" d="M20.6,20.2c1.1,0,2,0.3,2.7,0.5c0.6,0.2,0.9,0.7,0.9,1.7v8c-1.1,0.7-3.1,1.4-5.5,1.4
		C11.9,32,6.4,27.5,6.4,16.9C6.3,8.4,11.6,2.8,17.9,2.6c2.4-0.1,5,0.6,6.3,1.6c1.4,1.1,2.1,3.2,2.4,5.1l2.1-0.1l0.6-7.2
		c-1.7-0.1-3.7-0.6-4.9-1c-1.3-0.4-4.2-0.9-6.2-0.8C7.3,0.5-0.1,8.6,0,18.9c0.1,8.3,4.3,15.5,17.6,15.5c4.9,0,9.1-1.6,11-2.7
		l1.7-0.9v-9.2c0-1,0.2-1.6,1-1.9l1.8-0.6v-1.6l-12.4,1L20.6,20.2L20.6,20.2z"/>
	<path class="st0" d="M59.3,0.2c-10.2,0-18,7-18.4,17.6c-0.4,9.1,6.1,16.6,17,16.6c9.9,0,18-7.2,18.5-17.6
		C76.7,8.1,70.9,0.2,59.3,0.2L59.3,0.2z M69.2,18.2c-0.3,7.5-3.9,14.3-10.7,14.3S47.7,26,48.1,16.3c0.3-6.5,3.4-14,10.7-14
		C65.7,2.3,69.5,10.1,69.2,18.2z"/>
	<path class="st0" d="M114.3,0.8l-8,1.4v1.6c2.8-0.1,3.8,0.2,3.8,1.4v19.4L94.3,4.4l-2.6-3.3l-8.6,1.1v1.6c2.8-0.1,3.3,0.2,3.3,1.4
		v24.5c0,1.1-0.3,1.5-3.2,2v1.6h10.4v-1.6l-2.7-0.5c-0.6-0.2-1-0.5-1-1.7V7.3l20.2,26.2h3.7c-0.3-1.7-0.3-4.4-0.3-6.2l0.1-21.2
		C113.5,4.9,113.9,2.1,114.3,0.8L114.3,0.8z"/>
	<path class="st0" d="M144.1,20.2c1,0,2,0.3,2.7,0.5c0.6,0.2,1,0.7,1,1.7v8c-1,0.7-3,1.4-5.5,1.4c-6.8,0.2-12.3-4.3-12.3-14.9
		c-0.1-8.5,5.2-14.1,11.5-14.3c2.4-0.1,5,0.6,6.3,1.6c1.4,1.1,2.1,3.2,2.4,5.1l2.1-0.1l0.6-7.2c-1.7-0.1-3.7-0.6-4.9-1
		c-1.3-0.4-4.2-0.9-6.2-0.8c-10.9,0.4-18.2,8.5-18.2,18.8c0.1,8.3,4.3,15.5,17.6,15.5c4.9,0,9-1.6,11-2.7l1.7-0.9v-9.2
		c0-1,0.2-1.6,1-1.9l1.8-0.6v-1.6l-12.4,1L144.1,20.2L144.1,20.2z"/>
	<path class="st0" d="M163,3.9c2.8-0.1,3.3,0.2,3.3,1.4v25.1c0,5.7-3.2,9.2-7.5,11.9l1.1,2.1c5.9-2.5,12.9-8,12.9-14.4V6.1
		c0-1.2,0.4-4.1,0.9-5.3L163,2.2L163,3.9L163,3.9z"/>
	<path class="st0" d="M204.8,3.9c2.8-0.1,3.8,0.2,3.8,1.4v14.3c0,7.8-3.7,11.6-9.2,11.6c-6.4,0-8.5-4.3-8.4-11.6l0-13.4
		c0-1.2,0.4-4.1,0.9-5.3l-10.7,1.4v1.6c2.8-0.1,3.3,0.2,3.3,1.4v15.2c0,7.7,3.9,13.6,14.2,13.6c8.1,0,13.3-5.7,13.3-14V6.1
		c0-1.2,0.4-4.1,0.8-5.3l-8,1.4L204.8,3.9L204.8,3.9z"/>
	<path class="st0" d="M252.7,15.2l-5.6-2.3c-2.2-0.9-3.5-2.2-3.5-5c0-3.1,2.8-4.8,5.3-5c2-0.1,4,0.4,5.5,1.3c1.5,0.9,1.6,2.5,1.6,4
		l2,0.2l1.2-6.5c-1.5-0.1-3.8-0.8-5.6-1.2c-0.5-0.1-3.7-0.6-5-0.6C242.1,0.3,237,4.3,237,10c0,3.5,2.4,6.1,7.3,7.9l4.5,1.9
		c2.6,1.1,4.8,2.9,4.8,5.8c0,4.3-3,6.2-6.2,6.2c-2.5,0-4.6-0.6-5.6-1.5c-1.3-1.2-2.6-3.2-3-5.3h-2.6l0.7,6.9
		c2.3,1.6,6.8,2.4,10.2,2.4c6.4,0,13.1-3.6,13.1-10.7C260.2,20.2,257.7,17,252.7,15.2L252.7,15.2z"/>
	<path class="st0" d="M297.5,29.3L286.3,0c-1,0.7-3.2,2.1-5.1,2.1l-12.1,28c-0.5,1.1-1.5,1.6-3.3,1.8v1.5h10.5v-1.6
		c-0.5,0-1.4-0.2-2.2-0.4c-1-0.2-1.3-0.9-0.9-2.1l2.7-6.5l12.1-0.7l2.8,7.2c0.3,0.9,0.3,1.9-0.4,2h0l-2.4,0.4v1.5h13.3v-1.5
		C298.9,31.5,298.1,30.9,297.5,29.3L297.5,29.3z M276.8,20.4l5.8-14.1l4.6,13.4L276.8,20.4L276.8,20.4z"/>
	<path class="st0" d="M328.1,31.2h-9.8c-1.1,0-1.5-0.6-1.5-1.7V6.1c0-1.2,0.4-4.1,0.9-5.3l-10.7,1.4v1.6c2.8-0.1,3.3,0.2,3.3,1.4
		v24.5c0,1.1-0.3,1.5-3.2,2v1.6h26.3l1.3-7.1h-2.4C331.7,28.2,330,30.5,328.1,31.2L328.1,31.2z"/>
	<path class="st0" d="M359.1,0.2c-10.2,0-18,7-18.4,17.6c-0.4,9.1,6.1,16.6,17,16.6c9.9,0,18-7.2,18.5-17.6
		C376.4,8.1,370.6,0.2,359.1,0.2L359.1,0.2z M368.9,18.2c-0.3,7.5-3.9,14.3-10.7,14.3s-10.8-6.5-10.4-16.2c0.3-6.5,3.4-14,10.7-14
		C365.4,2.3,369.2,10.1,368.9,18.2L368.9,18.2z"/>
	<path class="st0" d="M413.3,6.1c0-1.2,0.4-4.1,0.8-5.3l-8,1.4v1.6c2.8-0.1,3.8,0.2,3.8,1.4v19.4L394,4.4l-2.6-3.3l-8.6,1.1v1.6
		c2.8-0.1,3.3,0.2,3.3,1.4v24.5c0,1.1-0.3,1.5-3.2,2v1.6h10.4v-1.6l-2.7-0.5c-0.6-0.2-1-0.5-1-1.7V7.3l20.2,26.2h3.7
		c-0.3-1.7-0.3-4.4-0.3-6.2L413.3,6.1L413.3,6.1z"/>
</g>
</svg>
