<?xml version="1.0" encoding="UTF-8"?>
<svg id="_레이어_1" data-name="레이어 1" xmlns="http://www.w3.org/2000/svg" viewBox="0 0 152.97 50.01">
  <defs>
    <style>
      .cls-1 {
        fill: #383332;
      }
    </style>
  </defs>
  <path class="cls-1" d="m16.48,17.82c-1.31,1.73-3.95,4.13-6.77,5.59-2.82,1.46-6.06,2.52-9.71,3.17v-6.86c2.15-.5,3.92-1.17,5.32-2.02,1.4-.84,2.51-1.86,3.34-3.06.82-1.19,1.41-2.58,1.76-4.15.35-1.58.52-3.38.52-5.42V0h8.92v5.08c0,.97-.02,3.61-.32,6.13-.38,3.16-1.76,4.89-3.07,6.62ZM4.35,50.01v-18.8h8.77v12.4h32.32v6.4H4.35Zm31.72-14.36V0h8.77v35.65h-8.77Z"/>
  <path class="cls-1" d="m120.58,40.84v2.77h32.39v6.4h-41.16v-15.05h31.79v-2.48h-31.79v-6.4h40.56v14.77h-31.79Zm22.94-17.13v-3.86h-7.05v-6.11h7.05v-4.04h-6.3V3.58h6.3V0h8.77v23.71h-8.77Z"/>
  <polygon class="cls-1" points="100.77 25.21 100.77 18.57 54.88 18.57 54.88 25.21 73.33 25.21 73.33 27.4 56.83 27.4 56.83 33.68 89.75 33.68 89.75 35.82 56.83 35.82 56.83 50.01 98.45 50.01 98.45 43.72 65.45 43.72 65.45 41.59 98.45 41.59 98.45 27.4 82.55 27.4 82.55 25.21 100.77 25.21"/>
  <path class="cls-1" d="m31.4,20.3c-10.02-.78-11.98-5.36-11.98-5.36,0,0-3.15,11.15,11.98,11.65v-6.29Z"/>
  <path class="cls-1" d="m110.21,16.84c14.05,0,24.03-10.58,24.03-10.58,0,0,.53,16.86-24.03,16.86v-6.29Z"/>
  <rect class="cls-1" x="110.9" y=".29" width="23.34" height="5.97"/>
  <path class="cls-1" d="m56.91,0v16.21h41.54V0h-41.54Zm34.05,10.53h-26.26v-2.04l9.49-3.37s-2.5,3.94,3.49,2.45c5.99-1.49,9.38-3.77,9.38-3.77,0,0-1.45,3.72,3.91,3.99v2.74Z"/>
</svg>