<?xml version="1.0" encoding="UTF-8"?>
<svg id="_레이어_1" data-name="레이어 1" xmlns="http://www.w3.org/2000/svg" viewBox="0 0 664.68 37.1">
  <defs>
    <style>
      .cls-1 {
        fill: none;
        stroke: #00ffe6;
        stroke-miterlimit: 10;
        stroke-width: 13px;
      }
    </style>
  </defs>
  <path class="cls-1" d="m3.04,29.34C18.09,37.31,67.43,1.82,82.44,7.02c11.69,4.06,4.22,17.53,1.25,22.12l.57.28c15.04,7.98,64.39-27.52,79.4-22.31,11.58,4.02,4.41,17.2,1.39,21.91l.54.31c15.04,7.98,64.39-27.52,79.4-22.31,11.69,4.06,4.22,17.53,1.25,22.12l.57.28c15.04,7.98,64.39-27.52,79.4-22.31,11.43,3.97,4.6,16.85,1.52,21.71l.94.51c15.04,7.98,64.39-27.52,79.4-22.31,11.69,4.06,4.22,17.53,1.25,22.12l.57.28c15.04,7.98,64.39-27.52,79.4-22.31,11.58,4.02,4.41,17.2,1.39,21.91l.54.31c15.04,7.98,64.39-27.52,79.4-22.31,11.69,4.06,4.22,17.53,1.25,22.12l.57.28c15.04,7.98,64.39-27.52,79.4-22.31,14.17,4.92.2,23.67.2,23.67"/>
</svg>