<?xml version="1.0" encoding="utf-8"?>
<!-- Generator: Adobe Illustrator 27.5.0, SVG Export Plug-In . SVG Version: 6.00 Build 0)  -->
<svg version="1.1" id="_레이어_1" xmlns="http://www.w3.org/2000/svg" xmlns:xlink="http://www.w3.org/1999/xlink" x="0px"
	 y="0px" viewBox="0 0 447.3 75.7" style="enable-background:new 0 0 447.3 75.7;" xml:space="preserve">
<style type="text/css">
	.st0{fill:#FFFFFF;}
</style>
<path class="st0" d="M36.5,47.8c0.4,0.2,0.8,0.3,1.2,0.3s0.8-0.1,1.2-0.3l15.9-9.2c0.7-0.4,1.2-1.2,1.2-2.1s-0.5-1.6-1.2-2.1
	l-15.9-9.2c-0.7-0.4-1.6-0.4-2.4,0s-1.2,1.2-1.2,2.1v18.3C35.3,46.6,35.8,47.4,36.5,47.8z"/>
<path class="st0" d="M91.3,20c0,0-0.1,0-0.1,0h-8.3c-0.1,0-0.2,0-0.3,0c-1.1,0-1.9,0.9-1.9,1.9c0,26.6-14.3,42.5-38.4,42.5
	c-18.6,0-38.4-11.2-38.4-42.5c0-1-0.8-1.9-1.9-1.9S0,20.8,0,21.9C0,50,16.6,68.1,42.2,68.1c12.5,0,22.9-4,30.3-11.7
	c7.4-7.7,11.5-19,11.8-32.6H91c3,0,5.5,2.5,5.5,5.5S94,34.8,91,34.8c-1,0-2-0.3-2.8-0.8c-0.9-0.5-2.1-0.2-2.6,0.7s-0.2,2.1,0.7,2.6
	c1.4,0.9,3.1,1.3,4.8,1.3c5.1,0,9.3-4.2,9.3-9.3S96.3,20.2,91.3,20L91.3,20z"/>
<path class="st0" d="M148.3,12.8c5.8-0.2,19.4-0.8,25.3-1.3c0.8-0.1,1.3,0,1.6,0.2c0.2,0.2,0.3,0.6,0.3,1.5c0,5.9-0.9,11.9-2.7,17.9
	l-0.1,0.4l2.6,1.3l0.2-0.4c3.4-6.7,5.6-14.6,5.6-20.1c0-0.9-0.8-1.8-1.5-2.4c-1.6-1.5-4.3-3-5.9-2.8c-5.8,0.4-19.2,1.3-25.3,1.3
	c-2.4,0-4.4-0.4-5.7-1.2l-0.4-0.2l-1.6,1.7l0.1,0.3C141.9,10.7,144.3,12.9,148.3,12.8L148.3,12.8z"/>
<path class="st0" d="M194.7,35.8c-2.3-0.5-5.4-0.4-8.7-0.3l-23.1,1c-0.6,0-1.4,0-2.2,0.1c0.4-1.5,0.7-3.1,0.8-4.3l0.2-4.8
	c0-0.3,0-0.6,0.1-1c0-0.4,0.1-0.7,0.1-1.1c0-0.8-0.6-1.4-1.8-1.9c-1.7-0.8-5.1-1.1-7-0.9l-0.3,0l-0.8,2.1l0.5,0.1
	c1.6,0.4,2.9,0.8,3.7,1.4c0.6,0.4,0.6,0.8,0.6,2.1v8.4l-0.5,0c-8.1,0.4-19.2,0.9-20.6,0.8c-2.4-0.1-5.1-0.8-7.1-1.9l-0.3-0.2
	l-1.8,1.5l0.2,0.4c1.6,2.3,5.5,4.7,9.1,4.7c0.2,0,0.4,0,0.6,0c4.2-0.4,19.6-1.6,29-2c9.8-0.4,18.5-0.5,21.3-0.3
	c3,0.2,5.9,0.7,6.9,1.2l0.2,0c1.4,0.2,2.6-0.1,3.4-0.8c0.5-0.4,0.8-1,0.9-1.6C198.2,37.2,196.9,36.2,194.7,35.8L194.7,35.8z"/>
<path class="st0" d="M166.1,48.7l-0.3-0.1l-2.1,2.3l0.7,0.3c5.3,2,8.3,5.6,8.3,10.1c0,5.6-4.3,9.3-10.8,9.3s-10.8-3.7-10.8-9.3
	c0-4.5,3.2-8.1,9-9.9c2-0.6,4.2-1.6,4.2-3.7c0-1.7-1.6-3.2-4.5-4.4l-0.4-0.1l-1.4,2l0.4,0.3c1,0.7,1.4,1.3,1.3,1.6
	c-0.1,0.3-0.6,0.5-0.8,0.6C150.8,50,146,55,146,61.3c0,7.7,6.7,13.2,15.9,13.2s15.9-5.6,15.9-13.2C177.8,55.2,173.8,50.8,166.1,48.7
	L166.1,48.7z"/>
<path class="st0" d="M279,37.9c-2.3-0.5-5.4-0.4-8.7-0.3l-23.1,1c-2,0.1-4.7,0.2-7.6,0.4c-7.3,0.4-16.4,0.8-19.2,0.8
	c-2.4-0.1-5.6-0.9-7.6-2l-0.3-0.2l-1.8,1.6l0.2,0.4c1.5,2.2,5.6,5,9.5,4.7l0.8-0.1c3.9-0.3,14.2-1.2,22.9-1.7v33.2h2.5l0.1-0.3
	c0.9-1.9,2.4-6.7,2.4-12.8V42.2c0.2,0,0.3,0,0.5,0c9.8-0.4,18.5-0.5,21.3-0.3c3,0.2,6,0.7,6.9,1.2l0.2,0c1.4,0.2,2.6-0.1,3.4-0.8
	c0.5-0.4,0.8-1,0.9-1.6C282.5,39.4,281.2,38.4,279,37.9L279,37.9z"/>
<path class="st0" d="M223.4,34.8c11.8-4.2,29.1-13.2,35.6-18.5c2.5-2.1,3.6-3.4,3.6-4.5c0-1.9-4.5-5-6.7-5c-1.8,0-5.9,0.4-10.2,0.8
	c-4.5,0.4-9.2,0.9-11.3,0.9c-1.6,0-3.4-0.4-5.2-1l-0.3-0.1L227,9l0.3,0.4c1.2,1.6,3.4,3.4,6.2,3.4c1.9,0.1,8.3-0.5,14-1
	c3.6-0.3,6.6-0.6,8-0.7c0.3,0,0.9,0,1.2,0c-0.1,0.2-0.4,0.5-1,1.2c-5.6,5.6-22.8,15.3-34,19.9l-0.6,0.3l2,2.4L223.4,34.8L223.4,34.8
	z"/>
<path class="st0" d="M253.6,21.6l-0.2-0.1l-4.1,2l1.3,0.4c4.1,1.1,14.8,5.3,15.7,8l0.1,0.3l0.3,0.1c0.2,0,0.5,0.1,0.7,0.1
	c0.9,0,1.8-0.3,2.4-0.9c0.7-0.6,0.9-1.5,0.8-2.5c-0.4-2.3-3.4-3.3-7.6-4.6c-1.5-0.5-3.1-0.9-4.7-1.3
	C256.8,22.5,255.2,22.1,253.6,21.6L253.6,21.6z"/>
<path class="st0" d="M318,24.6l-2.4,2.4l0.5,0.3c3.1,2,11,8.9,11.5,12.1l0,0.3l0.3,0.1c0.3,0.1,0.6,0.2,0.9,0.2
	c0.7,0,1.5-0.3,2.1-0.7c0.9-0.7,1.3-1.7,1.1-2.9c-0.3-2.3-2.4-3.7-4.4-5.1c-0.4-0.3-0.9-0.6-1.3-0.9c-1.9-1.4-4.5-3.2-8.2-5.6
	L318,24.6L318,24.6z"/>
<path class="st0" d="M342.5,56l2.6,0.6l0.2-0.2c1.7-1.9,3-5.2,3-7.5c0-1.7-3.6-3.8-5.8-3.8c-1.3,0-7.5,0.3-11.4,0.6
	c-4.4,0.2-8.5,0.4-10.7,0.4c-2,0-3.6-0.4-4.7-1l-0.3-0.2l-1.4,1.3l0.1,0.3c0.5,2.2,2.9,3.9,5.4,3.8c0.5,0,1.9-0.1,3.7-0.2
	c5.8-0.3,16.7-0.7,19.5-0.7c0.5,0,0.5,0.1,0.5,0.4c0,1.9-0.2,4.5-0.5,5.9L342.5,56L342.5,56z"/>
<path class="st0" d="M349.9,69.6c-1.5-0.6-3.3-0.4-5-0.1c-2.3,0.4-4,0.6-5.4,0.6c-4.6,0.2-13.6,0.5-17,0.5c-0.6,0-0.9-0.4-0.9-1.1
	V66c0-2.1-1.3-3.7-3.2-4.1l-0.2,0l-2.1,0.9l0.2,0.5c0.2,0.5,0.4,1.5,0.4,2.9l-0.1,4.6c0,1.9,3,3.7,5.3,3.7c2.5,0,11.3-0.2,18.4-0.4
	c4.8-0.1,9-0.2,9.8-0.2l0.2,0c0.9-0.4,1.4-1.1,1.4-2C351.6,70.8,350.9,70,349.9,69.6L349.9,69.6z"/>
<path class="st0" d="M321.2,15.5c0.8-1.5,1.5-3-0.5-4.8c-2-1.8-5.7-3.1-8.6-3.5l-0.3-0.1L310.5,9l0.5,0.3c1.1,0.6,2.7,1.6,3.7,2.7
	c0.9,0.9,1.1,1.5,0.2,3.8c-2.5,6.7-10.8,17.2-19.7,25l-0.4,0.3l2.1,2.2l0.4-0.3c10-7.5,20-18.9,23.8-27.3L321.2,15.5L321.2,15.5z"/>
<path class="st0" d="M361.8,22.2c-1-0.8-3.6-1.6-5.7-1.1c-0.7,0.1-1.5,0.3-2.3,0.5c-1.7,0.4-3.6,0.9-5.9,1.1l0.1-8.9
	c0-1.3,0.1-2.4,0.1-3.5c0.1-0.9,0.1-1.8,0.1-2.7c0-3.6-6.8-7.1-11.2-7.6l-0.3,0l-1.3,2l0.5,0.2c3,1.6,5.8,4.1,6.7,5.7
	c0.4,0.8,0.5,2.2,0.5,4.1v30.7h2.5l0.1-0.3c0.8-1.7,2.2-7.4,2.2-12v-4.4h0.2c4.1-0.2,9.8-0.6,11.7,0.1l0.2,0.1l0.2-0.1
	c0.9-0.4,2.1-1.8,2.1-3.1C362.3,22.8,362.1,22.5,361.8,22.2L361.8,22.2z"/>
<path class="st0" d="M326.4,61.3c2.6-0.1,5.4-0.2,7.9-0.3l1.5,0c3.6-0.1,8.6-0.2,10.8,0.3l0.1,0h0.1c1.1-0.1,1.9-1,1.9-2
	c0-0.4-0.2-1.9-2.5-2.3c-1.3-0.3-2.6-0.3-4.4-0.1c-2.9,0.3-6.2,0.5-11,0.7c-4.3,0.2-8.6,0.2-10.2,0.2c-2.8-0.2-4.6-0.4-5.9-1.2
	l-0.4-0.2l-1.2,1.6l0.1,0.3c1.1,2.1,3.4,3.5,5.8,3.5C320.5,61.6,323.2,61.5,326.4,61.3L326.4,61.3z"/>
<path class="st0" d="M397.8,20.9c1.4,0,4-0.1,6.9-0.3c2.7-0.1,5.7-0.3,8.4-0.4l2.2-0.1c4.9-0.1,9.1-0.3,11.3,0.2l0.1,0h0.1
	c1.1-0.1,1.9-0.9,1.9-2c0-0.4-0.2-1.9-2.5-2.4c-1.3-0.3-2.6-0.3-4.4-0.1c-2.5,0.3-6.8,0.5-12.3,0.7c-4.1,0.2-8.6,0.3-10.3,0.2
	c-2.8-0.2-4.6-0.4-5.9-1.1l-0.4-0.2l-1.2,1.5l0.2,0.3C393.2,19.5,395.4,20.9,397.8,20.9L397.8,20.9z"/>
<path class="st0" d="M398.5,9.8c0.4,0,1.5-0.1,2.9-0.1c6.1-0.2,18.8-0.8,21.7-0.8c0.5,0,0.5,0.1,0.5,0.4c0,1.6-0.2,3.8-0.5,5.2
	l-0.1,0.5l2.5,0.6l0.2-0.2c1.7-1.5,3.1-4.9,3.1-6.7c0-1.7-3.6-3.8-5.8-3.8c-0.8,0-4.7,0.2-8.4,0.4c-2.3,0.1-4.5,0.2-5.9,0.3
	c-1.4,0.1-2.6,0.1-3.7,0.2c-2.3,0.1-4,0.2-5.5,0.2c-2,0-3.6-0.4-4.7-1.1l-0.3-0.2L393,5.7l0.1,0.3C393.7,8.2,396,9.9,398.5,9.8
	L398.5,9.8z"/>
<path class="st0" d="M443.9,38c-2.3-0.5-5.4-0.4-8.7-0.3l-21,0.9c0.4-1.9,0.5-4.5,0.5-6.1v-0.6c3.2-0.1,6.4-0.2,9-0.3
	c3-0.1,5.2-0.1,5.8-0.2l0.2,0c0.9-0.4,1.4-1.1,1.4-2c0-0.9-0.7-1.7-1.7-2.1c-1.5-0.6-3.3-0.4-5-0.1c-0.6,0.1-1.2,0.2-1.7,0.3
	c-1.3,0.2-2.6,0.5-3.6,0.5c-4.5,0.3-14.3,0.6-17.8,0.6c-0.6,0-1-0.3-1-1v-2.4c0-2.1-1.3-3.7-3.2-4.1l-0.2,0l-2.1,0.9l0.2,0.5
	c0.2,0.5,0.4,1.5,0.4,2.9l-0.1,3.4c0,0.6,0.3,1.3,0.9,1.9c1.1,1,3,1.8,4.5,1.7l9.3-0.3v6.8c-9,0.5-23.3,1.1-24.9,1
	c-2.4-0.1-5.1-0.8-7.1-1.9l-0.3-0.2l-1.8,1.5l0.2,0.4c1.5,2.3,5.5,4.7,9,4.7c0.2,0,0.4,0,0.6,0c4.2-0.4,19.6-1.6,29-2
	c9.8-0.4,18.5-0.5,21.3-0.3c3,0.2,6,0.7,6.9,1.2l0.2,0c1.4,0.2,2.6-0.1,3.4-0.8c0.5-0.4,0.8-1,0.9-1.6
	C447.4,39.5,446.1,38.5,443.9,38L443.9,38z"/>
<path class="st0" d="M416.7,49.7l-0.3-0.1l-2.1,2.3l0.7,0.2c5.4,1.8,8.3,5.3,8.3,9.7c0,5.1-4.5,8.7-10.9,8.7s-10.9-3.6-10.9-8.7
	c0-5.6,4.9-8.3,9.1-9.6c2.9-0.9,4.2-2.2,4.2-3.8c0-1.8-1.8-3.4-4.6-4l-0.3-0.1l-1.4,2l0.4,0.3c1.3,0.9,1.3,1.3,1.3,1.4
	c0,0.1-0.2,0.3-0.8,0.5c-8.3,2.1-13.2,7-13.2,13.2c0,7.2,6.9,12.6,16.1,12.6s16.1-5.4,16.1-12.6C428.6,55.9,424.4,51.6,416.7,49.7
	L416.7,49.7z"/>
</svg>
