<?xml version="1.0" encoding="UTF-8"?>
<svg id="_레이어_1" data-name="레이어 1" xmlns="http://www.w3.org/2000/svg" viewBox="0 0 343.82 97.77">
  <defs>
    <style>
      .cls-1 {
        fill: #00ffe6;
      }

      .cls-2 {
        fill: #383332;
      }
    </style>
  </defs>
  <path class="cls-1" d="m171.34,5.01c-22.91-16.96-38.74,13.69-46.42,25.15l-1.19,1.83c.85-4.71.89-12.97-7.4-17.82-13.96-8.16-28.73,3.3-42.95,23.19l-1.52,2.33c.3-1.84.17-4.82-2.88-7.01C50.58,21.89,48.59,68.77,0,79.54c18.14,9.53,32.92-4.86,37.05,2.46,2.83,5.02,0,11.25,0,11.25,21.3,0,36.91-25.74,43.91-8.79,2.73,6.61,0,13.31,0,13.31,21.3,0,43.13-40.55,54.8-22.26,5.46,8.57-2.55,22.26-2.55,22.26,29.23-25.28,56.2-79.39,38.13-92.76Z"/>
  <g>
    <path class="cls-2" d="m192.12,54.61c-1.45,1.92-4.39,4.59-7.53,6.22-3.14,1.62-6.74,2.8-10.79,3.53v-7.63c2.39-.55,4.36-1.3,5.92-2.24,1.55-.94,2.79-2.07,3.71-3.4.92-1.32,1.57-2.86,1.96-4.62.39-1.75.58-3.76.58-6.03v-5.64h9.92v5.64c0,1.08-.02,4.02-.35,6.81-.42,3.51-1.96,5.43-3.41,7.36Zm-13.48,35.77v-20.9h9.75v13.78h35.92v7.12h-45.67Zm35.25-15.96v-39.62h9.75v39.62h-9.75Z"/>
    <path class="cls-2" d="m307.82,80.19v3.08h36v7.12h-45.75v-16.73h35.33v-2.76h-35.33v-7.12h45.08v16.41h-35.33Zm25.5-19.04v-4.29h-7.83v-6.8h7.83v-4.49h-7v-6.8h7v-3.97h9.75v26.35h-9.75Z"/>
    <polygon class="cls-2" points="285.8 62.82 285.8 55.45 234.8 55.45 234.8 62.82 255.3 62.82 255.3 65.25 236.97 65.25 236.97 72.24 273.55 72.24 273.55 74.61 236.97 74.61 236.97 90.38 283.22 90.38 283.22 83.4 246.55 83.4 246.55 81.02 283.22 81.02 283.22 65.25 265.55 65.25 265.55 62.82 285.8 62.82"/>
    <path class="cls-2" d="m208.71,57.37c-11.13-.87-13.32-5.96-13.32-5.96,0,0-3.5,12.39,13.32,12.95v-6.99Z"/>
    <path class="cls-2" d="m296.3,53.52c15.62,0,26.7-11.76,26.7-11.76,0,0,.59,18.74-26.7,18.74v-6.99Z"/>
    <rect class="cls-2" x="297.06" y="35.13" width="25.94" height="6.63"/>
    <path class="cls-2" d="m237.05,34.8v18.01h46.17v-18.01h-46.17Zm37.84,11.71h-29.19v-2.27l10.54-3.74s-2.78,4.38,3.88,2.72c6.66-1.65,10.42-4.19,10.42-4.19,0,0-1.62,4.13,4.34,4.43v3.05Z"/>
  </g>
</svg>