<?xml version="1.0" encoding="UTF-8"?>
<svg id="_레이어_1" data-name="레이어 1" xmlns="http://www.w3.org/2000/svg" viewBox="0 0 447.3 75.74">
  <defs>
    <style>
      .cls-1 {
        fill: #111;
      }
    </style>
  </defs>
  <path class="cls-1" d="m36.49,47.84c.37.21.78.32,1.19.32s.82-.11,1.19-.32l15.88-9.17c.74-.42,1.19-1.21,1.19-2.06s-.45-1.63-1.19-2.06l-15.88-9.17c-.74-.42-1.64-.42-2.38,0-.74.42-1.19,1.21-1.19,2.06v18.34c0,.85.45,1.63,1.19,2.06Z"/>
  <path class="cls-1" d="m91.27,19.99s-.09,0-.14,0h-8.32c-.11-.02-.22-.03-.33-.03-1.05,0-1.9.85-1.9,1.9,0,26.59-14.35,42.46-38.38,42.46-18.56,0-38.38-11.15-38.38-42.46,0-1.05-.85-1.9-1.9-1.9s-1.9.85-1.9,1.9c0,28.11,16.56,46.27,42.19,46.27,12.45,0,22.94-4.04,30.31-11.69,7.42-7.69,11.49-18.95,11.84-32.64h6.61c3.03,0,5.5,2.47,5.5,5.5s-2.47,5.5-5.5,5.5c-1,0-1.97-.27-2.82-.78-.9-.54-2.07-.25-2.61.65-.54.9-.25,2.07.65,2.61,1.44.86,3.09,1.32,4.78,1.32,5.13,0,9.31-4.18,9.31-9.31s-4-9.13-8.99-9.3Z"/>
  <path class="cls-1" d="m148.31,12.82c5.76-.16,19.4-.81,25.32-1.3.81-.07,1.32.01,1.57.23.23.21.33.65.33,1.46,0,5.88-.89,11.88-2.66,17.86l-.12.4,2.6,1.3.23-.44c3.43-6.68,5.65-14.57,5.65-20.09,0-.89-.8-1.83-1.48-2.45-1.57-1.46-4.3-2.96-5.95-2.83-5.79.45-19.18,1.3-25.34,1.3-2.41,0-4.45-.43-5.74-1.22l-.35-.21-1.56,1.68.15.31c.92,1.91,3.38,4.1,7.36,4.01Z"/>
  <path class="cls-1" d="m194.7,35.75c-2.31-.5-5.39-.42-8.72-.34l-23.09,1.05c-.64,0-1.43.05-2.23.11.42-1.49.72-3.1.79-4.29l.16-4.8c0-.31.04-.63.08-.96.04-.36.08-.73.08-1.07,0-.75-.59-1.4-1.75-1.92-1.66-.75-5.05-1.11-6.98-.93l-.31.03-.79,2.11.54.14c1.57.41,2.93.8,3.73,1.39.57.4.6.77.6,2.1v8.36l-.49.02c-8.09.39-19.16.93-20.56.84-2.44-.07-5.11-.78-7.15-1.88l-.29-.16-1.83,1.47.25.38c1.55,2.33,5.53,4.71,9.05,4.71.22,0,.44,0,.65-.03,4.25-.39,19.65-1.64,29-2.03,9.76-.41,18.48-.48,21.27-.33,2.97.17,5.95.67,6.94,1.16l.17.05c1.42.15,2.64-.13,3.43-.8.51-.43.81-1,.85-1.61.11-1.3-1.16-2.35-3.39-2.8Z"/>
  <path class="cls-1" d="m166.1,48.73l-.3-.08-2.07,2.31.68.26c5.34,2.04,8.27,5.62,8.27,10.07,0,5.57-4.33,9.31-10.77,9.31s-10.77-3.74-10.77-9.31c0-4.54,3.19-8.06,8.98-9.9,1.97-.64,4.24-1.63,4.24-3.72,0-1.73-1.57-3.23-4.54-4.36l-.37-.14-1.39,2.03.4.29c1.03.73,1.35,1.32,1.3,1.63-.05.33-.55.55-.82.64-8.1,2.21-12.94,7.27-12.94,13.54,0,7.67,6.69,13.23,15.91,13.23s15.9-5.56,15.9-13.23c0-6.14-4.05-10.49-11.72-12.56Z"/>
  <path class="cls-1" d="m279.02,37.94c-2.31-.5-5.39-.42-8.72-.34l-23.11,1.05c-2.04.09-4.73.23-7.64.37-7.32.37-16.44.82-19.16.76-2.45-.07-5.56-.88-7.56-1.97l-.3-.17-1.81,1.57.24.37c1.46,2.19,5.59,5.03,9.54,4.68l.76-.06c3.93-.32,14.24-1.16,22.94-1.69v33.21h2.52l.14-.29c.89-1.88,2.4-6.69,2.4-12.78v-20.41c.16-.01.32-.01.49-.01,9.76-.41,18.48-.48,21.27-.32,2.97.17,5.95.67,6.94,1.16l.17.05c1.42.15,2.64-.13,3.43-.8.51-.43.81-1,.85-1.61.11-1.3-1.17-2.35-3.39-2.8Z"/>
  <path class="cls-1" d="m223.38,34.77c11.83-4.19,29.12-13.18,35.58-18.49,2.48-2.05,3.59-3.44,3.59-4.52,0-1.95-4.48-4.96-6.74-4.96-1.79,0-5.87.38-10.19.77-4.51.42-9.18.85-11.29.85-1.58,0-3.42-.36-5.18-1.02l-.29-.11-1.85,1.73.26.36c1.16,1.61,3.41,3.37,6.23,3.45,1.91.05,8.31-.53,13.96-1.04,3.57-.32,6.65-.6,7.96-.66.29-.01.9-.04,1.21,0-.11.18-.38.53-1.02,1.17-5.55,5.55-22.82,15.26-33.97,19.92l-.63.26,2.04,2.41.32-.12Z"/>
  <path class="cls-1" d="m253.6,21.57l-.19-.06-4.06,1.97,1.3.35c4.14,1.1,14.77,5.27,15.71,8.03l.09.27.28.06c.24.05.48.07.72.07.91,0,1.8-.33,2.4-.9.66-.63.94-1.51.79-2.49-.36-2.26-3.36-3.34-7.56-4.62-1.5-.46-3.07-.89-4.74-1.34-1.57-.43-3.17-.86-4.75-1.34Z"/>
  <path class="cls-1" d="m317.95,24.62l-2.35,2.35.52.34c3.07,1.97,11,8.95,11.53,12.15l.05.28.26.1c.28.11.59.16.92.16.72,0,1.52-.26,2.12-.73.88-.68,1.28-1.71,1.13-2.88-.3-2.29-2.37-3.7-4.38-5.06-.42-.29-.85-.58-1.26-.88-1.93-1.38-4.54-3.16-8.2-5.6l-.34-.23Z"/>
  <path class="cls-1" d="m342.45,55.96l2.57.58.2-.22c1.71-1.87,3.05-5.16,3.05-7.47,0-1.65-3.63-3.82-5.77-3.82-1.28,0-7.49.32-11.38.57-4.41.25-8.5.4-10.67.4-1.99,0-3.65-.37-4.67-1.05l-.32-.22-1.4,1.27.07.29c.55,2.21,2.93,3.88,5.37,3.78.51-.02,1.86-.08,3.67-.16,5.84-.26,16.72-.73,19.5-.73.47,0,.47.11.47.39,0,1.88-.19,4.5-.55,5.87l-.13.5Z"/>
  <path class="cls-1" d="m349.89,69.63c-1.54-.58-3.33-.39-5.04-.11-2.26.36-4.02.57-5.38.64-4.58.25-13.61.49-17,.49q-.88,0-.88-1.12v-3.49c0-2.09-1.27-3.71-3.23-4.14l-.16-.03-2.07.92.2.46c.24.54.36,1.51.36,2.87l-.08,4.55c0,1.93,2.98,3.74,5.28,3.74,2.46,0,11.27-.2,18.35-.36,4.83-.11,9-.21,9.79-.21l.19-.04c.88-.37,1.42-1.14,1.39-2.01-.02-.95-.69-1.78-1.74-2.16Z"/>
  <path class="cls-1" d="m321.24,15.53c.75-1.54,1.46-2.99-.46-4.83-1.97-1.79-5.74-3.06-8.61-3.53l-.3-.05-1.41,1.92.49.28c1.11.62,2.7,1.59,3.69,2.74.85.92,1.09,1.48.22,3.78-2.5,6.72-10.8,17.24-19.72,25.01l-.39.34,2.12,2.24.36-.26c10.02-7.45,20.04-18.92,23.83-27.27l.18-.38Z"/>
  <path class="cls-1" d="m361.78,22.19c-.95-.77-3.57-1.58-5.67-1.15-.7.13-1.49.33-2.31.54-1.72.43-3.65.92-5.93,1.12l.08-8.95c0-1.33.07-2.44.13-3.51.06-.91.11-1.77.11-2.65,0-3.58-6.81-7.05-11.23-7.55l-.31-.04-1.26,2.02.47.25c2.95,1.6,5.82,4.06,6.69,5.72.42.77.51,2.18.51,4.06v30.74h2.45l.13-.29c.76-1.68,2.23-7.43,2.23-11.96v-4.39h.24c4.15-.25,9.84-.58,11.66.08l.2.07.19-.1c.88-.44,2.14-1.8,2.14-3.12,0-.31-.17-.61-.51-.88Z"/>
  <path class="cls-1" d="m326.4,61.34c2.57-.11,5.38-.24,7.92-.31l1.48-.04c3.62-.09,8.59-.22,10.8.27l.08.02h.08c1.13-.11,1.91-.95,1.91-2.05,0-.43-.18-1.86-2.5-2.35-1.26-.29-2.57-.32-4.39-.09-2.85.33-6.19.49-10.99.65-4.26.17-8.57.24-10.25.16-2.75-.16-4.59-.4-5.86-1.15l-.39-.23-1.19,1.59.15.28c1.15,2.13,3.43,3.5,5.79,3.5,1.51,0,4.21-.12,7.34-.26Z"/>
  <path class="cls-1" d="m397.82,20.85c1.44,0,3.97-.13,6.9-.28,2.69-.14,5.74-.29,8.43-.37l2.24-.06c4.9-.14,9.14-.27,11.34.21l.08.02h.08c1.14-.11,1.91-.9,1.91-1.96,0-.43-.18-1.87-2.5-2.35-1.26-.29-2.57-.32-4.39-.09-2.53.3-6.78.55-12.29.73-4.13.17-8.58.32-10.33.24-2.75-.16-4.59-.4-5.86-1.15l-.37-.22-1.21,1.48.16.3c1.15,2.13,3.43,3.5,5.79,3.5Z"/>
  <path class="cls-1" d="m398.49,9.82c.42-.02,1.47-.06,2.9-.12,6.1-.25,18.8-.77,21.73-.77.47,0,.47.11.47.39,0,1.62-.23,3.79-.55,5.16l-.12.49,2.53.57.19-.17c1.66-1.49,3.08-4.93,3.08-6.7,0-1.65-3.63-3.82-5.77-3.82-.82,0-4.66.19-8.38.37-2.26.11-4.47.22-5.91.28-1.4.05-2.63.11-3.72.15-2.31.1-3.98.17-5.5.17-1.99,0-3.65-.37-4.67-1.05l-.31-.21-1.42,1.16.08.31c.55,2.21,2.91,3.88,5.37,3.78Z"/>
  <path class="cls-1" d="m443.9,38.02c-2.31-.5-5.39-.42-8.72-.34l-21.01.94c.35-1.94.53-4.46.53-6.12v-.57c3.19-.11,6.39-.2,8.99-.28,3.01-.09,5.18-.15,5.78-.19l.16-.04c.88-.37,1.41-1.13,1.39-1.97-.02-.92-.69-1.74-1.74-2.12-1.54-.58-3.33-.39-5.04-.11-.59.09-1.17.2-1.73.3-1.33.23-2.58.45-3.65.51-4.52.26-14.3.65-17.81.65q-.96,0-.96-1.04v-2.35c0-2.09-1.27-3.71-3.23-4.14l-.16-.03-2.07.92.2.46c.24.54.36,1.51.36,2.87l-.08,3.42c0,.64.32,1.28.93,1.87,1.1,1.05,2.96,1.77,4.45,1.71l9.29-.31v6.79c-9.01.45-23.34,1.11-24.86,1.03-2.44-.07-5.11-.78-7.15-1.89l-.29-.16-1.83,1.47.25.38c1.55,2.33,5.54,4.71,9.05,4.71.22,0,.44,0,.65-.03,4.25-.39,19.63-1.64,29-2.03,9.76-.41,18.48-.48,21.27-.32,2.97.17,5.95.67,6.94,1.16l.17.05c1.42.15,2.64-.13,3.43-.8.51-.43.81-1,.85-1.61.11-1.31-1.16-2.35-3.39-2.8Z"/>
  <path class="cls-1" d="m416.67,49.7l-.29-.07-2.08,2.33.71.24c5.38,1.84,8.34,5.3,8.34,9.74,0,5.1-4.46,8.66-10.85,8.66s-10.85-3.56-10.85-8.66c0-5.6,4.92-8.3,9.06-9.58,2.85-.92,4.24-2.16,4.24-3.8,0-1.81-1.81-3.38-4.61-3.98l-.33-.07-1.36,1.98.4.29c1.3.93,1.32,1.33,1.31,1.41-.02.13-.25.34-.82.54-8.26,2.11-13.19,7.05-13.19,13.21,0,7.17,6.94,12.58,16.15,12.58s16.15-5.41,16.15-12.58c0-6.01-4.25-10.36-11.98-12.24Z"/>
</svg>