<?xml version="1.0" encoding="UTF-8"?>
<svg id="_레이어_1" data-name="레이어 1" xmlns="http://www.w3.org/2000/svg" viewBox="0 0 532.63 48.97">
  <defs>
    <style>
      .cls-1 {
        fill: #111;
      }
    </style>
  </defs>
  <path class="cls-1" d="m139.2,24.85c1.05.05,2,.29,2.67.52.62.24.95.67.95,1.67v8.05c-1.05.67-3.05,1.38-5.53,1.38-6.81.19-12.29-4.29-12.34-14.87-.09-8.48,5.24-14.1,11.53-14.29,2.43-.1,4.96.57,6.29,1.57,1.43,1.05,2.1,3.19,2.38,5.05l2.1-.1.62-7.2c-1.67-.1-3.67-.62-4.91-1-1.33-.43-4.24-.86-6.24-.81-10.86.38-18.25,8.48-18.16,18.77.05,8.29,4.29,15.53,17.58,15.53,4.91,0,9.05-1.62,11.01-2.72l1.67-.86v-9.24c0-1,.19-1.62,1-1.86l1.76-.62v-1.57l-12.39,1v1.57Z"/>
  <path class="cls-1" d="m177.89,4.94c-10.25,0-17.96,7-18.44,17.63-.38,9.1,6.1,16.63,16.96,16.63,9.86,0,17.96-7.2,18.49-17.58.33-8.77-5.48-16.68-17.01-16.68Zm9.82,17.92c-.33,7.48-3.91,14.34-10.67,14.34s-10.77-6.53-10.39-16.25c.33-6.53,3.38-13.96,10.72-13.96,6.86,0,10.67,7.77,10.34,15.87Z"/>
  <path class="cls-1" d="m232.88,5.51l-8.01,1.43v1.62c2.76-.14,3.77.19,3.77,1.38v19.39l-15.82-20.2-2.57-3.34-8.63,1.14v1.62c2.76-.14,3.34.19,3.34,1.38v24.54c0,1.14-.29,1.52-3.19,2.05v1.57h10.39v-1.62l-2.72-.52c-.62-.19-1-.52-1-1.67V12.04l20.25,26.21h3.67c-.29-1.72-.33-4.38-.33-6.24l.05-21.2c0-1.19.38-4.05.81-5.29Z"/>
  <path class="cls-1" d="m262.67,24.85c1.05.05,2,.29,2.67.52.62.24.95.67.95,1.67v8.05c-1.05.67-3.05,1.38-5.53,1.38-6.81.19-12.29-4.29-12.34-14.87-.1-8.48,5.24-14.1,11.53-14.29,2.43-.1,4.96.57,6.29,1.57,1.43,1.05,2.1,3.19,2.38,5.05l2.1-.1.62-7.2c-1.67-.1-3.67-.62-4.91-1-1.33-.43-4.24-.86-6.24-.81-10.86.38-18.25,8.48-18.16,18.77.05,8.29,4.29,15.53,17.58,15.53,4.91,0,9.05-1.62,11.01-2.72l1.67-.86v-9.24c0-1,.19-1.62,1-1.86l1.76-.62v-1.57l-12.39,1v1.57Z"/>
  <path class="cls-1" d="m281.59,8.56c2.76-.14,3.34.19,3.34,1.38v25.06c0,5.67-3.24,9.2-7.53,11.87l1.14,2.1c5.86-2.48,12.87-7.96,12.87-14.39V10.8c0-1.19.38-4.05.86-5.29l-10.67,1.43v1.62Z"/>
  <path class="cls-1" d="m323.35,8.56c2.81-.14,3.81.19,3.81,1.38v14.34c0,7.77-3.72,11.58-9.2,11.58-6.39,0-8.48-4.29-8.43-11.63l.05-13.44c0-1.19.38-4.05.86-5.29l-10.67,1.43v1.62c2.76-.14,3.34.19,3.34,1.38v15.2c0,7.67,3.91,13.58,14.2,13.58,8.1,0,13.29-5.67,13.29-14.01v-13.91c0-1.19.38-4.05.81-5.29l-8.05,1.43v1.62Z"/>
  <path class="cls-1" d="m371.22,19.85l-5.57-2.29c-2.24-.91-3.48-2.24-3.48-4.96,0-3.05,2.76-4.81,5.29-4.96,2-.1,3.96.38,5.48,1.33,1.52.95,1.62,2.53,1.62,3.96l1.95.19,1.19-6.53c-1.48-.14-3.77-.76-5.62-1.19-.48-.14-3.72-.62-5.05-.57-6.34.14-11.48,4.15-11.48,9.86,0,3.53,2.43,6.05,7.34,7.91l4.48,1.86c2.62,1.1,4.81,2.91,4.81,5.81,0,4.29-2.95,6.15-6.24,6.15-2.48,0-4.57-.62-5.62-1.48-1.29-1.24-2.57-3.19-2.95-5.34h-2.57l.67,6.91c2.29,1.57,6.81,2.38,10.2,2.38,6.39,0,13.06-3.62,13.06-10.72,0-3.29-2.52-6.43-7.48-8.34Z"/>
  <path class="cls-1" d="m416.01,33.96l-11.2-29.26c-1.05.67-3.19,2.05-5.1,2.14l-12.1,28.02c-.48,1.14-1.48,1.57-3.34,1.76v1.48h10.53v-1.62c-.52-.05-1.43-.24-2.24-.38-.95-.19-1.33-.86-.86-2.1l2.72-6.48,12.1-.71,2.76,7.24c.29.91.29,1.91-.43,2.05h.05l-2.43.43v1.52h13.3v-1.52c-2.29-.29-3.14-.95-3.77-2.57Zm-20.68-8.82l5.77-14.15,4.62,13.44-10.39.71Z"/>
  <path class="cls-1" d="m446.61,35.91h-9.82c-1.14,0-1.48-.57-1.48-1.72V10.8c0-1.19.38-4.05.86-5.29l-10.67,1.43v1.62c2.76-.14,3.34.19,3.34,1.38v24.54c0,1.14-.29,1.52-3.19,2.05v1.57h26.26l1.33-7.1h-2.43c-.57,1.86-2.29,4.15-4.19,4.91Z"/>
  <path class="cls-1" d="m477.64,4.94c-10.25,0-17.96,7-18.44,17.63-.38,9.1,6.1,16.63,16.96,16.63,9.86,0,17.96-7.2,18.49-17.58.33-8.77-5.48-16.68-17.01-16.68Zm9.82,17.92c-.33,7.48-3.91,14.34-10.67,14.34s-10.77-6.53-10.39-16.25c.33-6.53,3.38-13.96,10.72-13.96,6.86,0,10.67,7.77,10.34,15.87Z"/>
  <path class="cls-1" d="m531.82,10.8c0-1.19.38-4.05.81-5.29l-8.01,1.43v1.62c2.76-.14,3.77.19,3.77,1.38v19.39l-15.82-20.2-2.57-3.34-8.63,1.14v1.62c2.76-.14,3.34.19,3.34,1.38v24.54c0,1.14-.29,1.52-3.19,2.05v1.57h10.39v-1.62l-2.72-.52c-.62-.19-1-.52-1-1.67V12.04l20.25,26.21h3.67c-.29-1.72-.33-4.38-.33-6.24l.05-21.2Z"/>
  <path class="cls-1" d="m34.35,26.63c.39.22.82.34,1.25.34s.86-.11,1.25-.34l14.92-8.61c.77-.45,1.25-1.27,1.25-2.17s-.48-1.72-1.25-2.17l-14.92-8.61c-.77-.45-1.73-.45-2.5,0-.77.45-1.25,1.27-1.25,2.16v17.22c0,.89.48,1.72,1.25,2.16Z"/>
  <path class="cls-1" d="m85.94.04s-.1,0-.15,0h-7.81c-.1-.02-.21-.03-.32-.03-1.1,0-2,.9-2,2,0,24.84-13.39,39.66-35.83,39.66C22.51,41.66,4,31.24,4,2c0-1.1-.9-2-2-2S0,.9,0,2c0,26.52,15.63,43.66,39.83,43.66,11.76,0,21.65-3.82,28.62-11.04,6.97-7.22,10.81-17.77,11.17-30.59h6c2.73,0,4.95,2.22,4.95,4.95s-2.22,4.95-4.95,4.95c-.9,0-1.78-.24-2.54-.7-.95-.57-2.18-.26-2.74.69-.57.95-.26,2.18.69,2.74,1.38.83,2.97,1.27,4.6,1.27,4.94,0,8.95-4.02,8.95-8.95S90.73.2,85.94.04Z"/>
</svg>