<?xml version="1.0" encoding="UTF-8"?>
<svg id="_레이어_1" data-name="레이어 1" xmlns="http://www.w3.org/2000/svg" viewBox="0 0 177.18 161.61">
  <defs>
    <style>
      .cls-1 {
        fill: #00ffe6;
      }

      .cls-2 {
        fill: #383332;
      }
    </style>
  </defs>
  <path class="cls-1" d="m171.34,5.01c-22.91-16.96-38.74,13.69-46.42,25.15l-1.19,1.83c.85-4.71.89-12.97-7.4-17.82-13.96-8.16-28.73,3.3-42.95,23.19l-1.52,2.33c.3-1.84.17-4.82-2.88-7.01C50.58,21.89,48.59,68.77,0,79.54c18.14,9.53,32.92-4.86,37.05,2.46,2.83,5.02,0,11.25,0,11.25,21.3,0,36.91-25.74,43.91-8.79,2.73,6.61,0,13.31,0,13.31,21.3,0,43.13-40.55,54.8-22.26,5.46,8.57-2.55,22.26-2.55,22.26,29.23-25.28,56.2-79.39,38.13-92.76Z"/>
  <g>
    <path class="cls-2" d="m28.59,129.43c-1.31,1.73-3.95,4.13-6.77,5.59-2.82,1.46-6.06,2.52-9.71,3.17v-6.86c2.15-.5,3.92-1.17,5.32-2.02,1.4-.84,2.51-1.86,3.34-3.06.82-1.19,1.41-2.58,1.76-4.15.35-1.58.52-3.38.52-5.42v-5.08h8.92v5.08c0,.97-.02,3.61-.32,6.13-.38,3.16-1.76,4.89-3.07,6.62Zm-12.13,32.18v-18.8h8.77v12.4h32.32v6.4H16.46Zm31.72-14.36v-35.65h8.77v35.65h-8.77Z"/>
    <path class="cls-2" d="m132.68,152.44v2.77h32.39v6.4h-41.16v-15.05h31.79v-2.48h-31.79v-6.4h40.56v14.77h-31.79Zm22.94-17.13v-3.86h-7.05v-6.11h7.05v-4.04h-6.3v-6.11h6.3v-3.58h8.77v23.71h-8.77Z"/>
    <polygon class="cls-2" points="112.88 136.81 112.88 130.18 66.99 130.18 66.99 136.81 85.43 136.81 85.43 139 68.94 139 68.94 145.29 101.85 145.29 101.85 147.42 68.94 147.42 68.94 161.61 110.55 161.61 110.55 155.32 77.56 155.32 77.56 153.19 110.55 153.19 110.55 139 94.66 139 94.66 136.81 112.88 136.81"/>
    <path class="cls-2" d="m43.51,131.91c-10.02-.78-11.98-5.36-11.98-5.36,0,0-3.15,11.15,11.98,11.65v-6.29Z"/>
    <path class="cls-2" d="m122.32,128.44c14.05,0,24.03-10.58,24.03-10.58,0,0,.53,16.86-24.03,16.86v-6.29Z"/>
    <rect class="cls-2" x="123.01" y="111.9" width="23.34" height="5.97"/>
    <path class="cls-2" d="m69.01,111.6v16.21h41.54v-16.21h-41.54Zm34.05,10.53h-26.26v-2.04l9.49-3.37s-2.5,3.94,3.49,2.45c5.99-1.49,9.38-3.77,9.38-3.77,0,0-1.45,3.72,3.91,3.99v2.74Z"/>
  </g>
</svg>