<?xml version="1.0" encoding="UTF-8"?>
<svg id="_레이어_1" data-name="레이어 1" xmlns="http://www.w3.org/2000/svg" viewBox="0 0 167.41 77.4">
  <defs>
    <style>
      .cls-1 {
        fill: #d0df00;
      }
    </style>
  </defs>
  <g>
    <path class="cls-1" d="m45.24,42.17h-25.13c-1.01,0-1.83-.82-1.83-1.83v-3.57c0-1.01.82-1.66,1.83-1.66h21.07c1.01,0,1.83-.82,1.83-1.83V3.55c0-1.01-.82-1.83-1.83-1.83H1.83c-1.01,0-1.83.82-1.83,1.83v67.62c0,1.01.82,1.83,1.83,1.83h43.41c1.01,0,1.83-.82,1.83-1.83v-27.16c0-1.01-.82-1.83-1.83-1.83Z"/>
    <path class="cls-1" d="m82.09,25.33c0-1.01-.82-1.83-1.83-1.83h-8.05c-1.01,0-1.83-.82-1.83-1.83V3.3h0v-1.46c0-1.01-.82-1.83-1.83-1.83h-21.08c-1.01,0-1.83.82-1.83,1.83v1.46c0,1.01.82,1.83,1.83,1.83h2.87v70.44c0,1.01.82,1.83,1.83,1.83h16.38c1.01,0,1.83-.82,1.83-1.83v-21.08c0-1.01.82-1.83,1.83-1.83h8.05c1.01,0,1.83-.82,1.83-1.83v-25.5Z"/>
  </g>
  <g>
    <path class="cls-1" d="m130.56,42.17h-25.13c-1.01,0-1.83-.82-1.83-1.83v-3.57c0-1.01.82-1.66,1.83-1.66h21.07c1.01,0,1.83-.82,1.83-1.83V3.55c0-1.01-.82-1.83-1.83-1.83h-39.35c-1.01,0-1.83.82-1.83,1.83v67.62c0,1.01.82,1.83,1.83,1.83h43.41c1.01,0,1.83-.82,1.83-1.83v-27.16c0-1.01-.82-1.83-1.83-1.83Z"/>
    <path class="cls-1" d="m167.41,25.33c0-1.01-.82-1.83-1.83-1.83h-8.05c-1.01,0-1.83-.82-1.83-1.83V3.3h0v-1.46c0-1.01-.82-1.83-1.83-1.83h-21.08c-1.01,0-1.83.82-1.83,1.83v1.46c0,1.01.82,1.83,1.83,1.83h2.87v70.44c0,1.01.82,1.83,1.83,1.83h16.38c1.01,0,1.83-.82,1.83-1.83v-21.08c0-1.01.82-1.83,1.83-1.83h8.05c1.01,0,1.83-.82,1.83-1.83v-25.5Z"/>
  </g>
</svg>