<?xml version="1.0" encoding="UTF-8"?>
<svg id="_레이어_1" data-name="레이어 1" xmlns="http://www.w3.org/2000/svg" viewBox="0 0 1125.05 181.98">
  <defs>
    <style>
      .cls-1 {
        fill: #00ffe6;
      }

      .cls-2 {
        fill: #383332;
      }
    </style>
  </defs>
  <path class="cls-1" d="m318.92,9.32c-42.65-31.57-72.1,25.48-86.41,46.81l-2.22,3.41c1.58-8.77,1.66-24.15-13.77-33.17-25.98-15.19-53.47,6.15-79.95,43.16l-2.82,4.34c.55-3.43.32-8.98-5.37-13.04C94.15,40.75,90.44,128.01,0,148.05c33.77,17.74,61.28-9.05,68.96,4.58,5.27,9.35,0,20.93,0,20.93,39.65,0,68.71-47.92,81.73-16.36,5.08,12.3,0,24.78,0,24.78,39.65,0,80.29-75.48,102.01-41.43,10.17,15.94-4.74,41.43-4.74,41.43,54.4-47.06,104.6-147.77,70.97-172.66Z"/>
  <g>
    <path class="cls-2" d="m390.78,76.04l-.75.25,1,22.29v50.34h-17.03V57.88h24.92l27.17,50.34,11.27,22.54.75-.25-1-22.16v-50.46h17.03v91.03h-24.92l-27.17-50.34-11.27-22.54Z"/>
    <path class="cls-2" d="m466.66,57.88h66.49v15.03h-48.96v21.66h44.08v14.65h-44.08v24.67h48.96v15.03h-66.49V57.88Z"/>
    <path class="cls-2" d="m536.28,57.88h17.91l12.02,50.08,4.38,23.79h.5l5.51-23.79,14.27-50.08h18.16l14.27,50.08,5.51,23.79h.5l4.38-23.79,12.02-50.08h17.91l-23.04,91.03h-21.29l-12.9-41.45-6.14-24.04h-.63l-6.14,24.17-12.9,41.32h-21.29l-23.04-91.03Z"/>
    <path class="cls-2" d="m687.42,57.88h17.91l12.02,50.08,4.38,23.79h.5l5.51-23.79,14.27-50.08h18.16l14.27,50.08,5.51,23.79h.5l4.38-23.79,12.02-50.08h17.91l-23.04,91.03h-21.29l-12.9-41.45-6.14-24.04h-.63l-6.14,24.17-12.9,41.32h-21.29l-23.04-91.03Z"/>
    <path class="cls-2" d="m839.31,57.88h22.04l34.18,91.03h-18.66l-7.64-20.91h-38.69l-7.64,20.91h-18.16l34.56-91.03Zm10.02,16.15l-6.76,20.91-6.89,18.78h28.3l-7.14-19.41-6.76-20.29h-.75Z"/>
    <path class="cls-2" d="m885.51,57.88h18.78l18.16,50.21,8.26,24.67h.75l8.01-24.67,18.03-50.21h18.28l-34.31,91.03h-22.04l-33.93-91.03Z"/>
    <path class="cls-2" d="m981.43,57.88h66.49v15.03h-48.96v21.66h44.08v14.65h-44.08v24.67h48.96v15.03h-66.49V57.88Z"/>
    <path class="cls-2" d="m1054.68,122.24l18.78-2c-.5,13.02,4.13,16.28,16.03,16.28,10.52,0,18.28-2.88,18.28-11.77,0-23.42-50.46-7.26-50.46-42.45,0-18.41,14.53-26.67,33.43-26.67s33.43,6.89,33.31,27.8l-18.41,2.13c.38-12.27-4.76-15.28-16.15-15.28-8.64,0-14.9,2.5-14.9,9.27,0,20.16,50.46,6.01,50.46,43.2,0,21.29-16.53,28.42-36.31,28.42-21.29,0-35.44-7.89-34.06-28.92Z"/>
  </g>
</svg>