<?xml version="1.0" encoding="UTF-8"?>
<svg id="_레이어_1" data-name="레이어 1" xmlns="http://www.w3.org/2000/svg" viewBox="0 0 40 40">
  <defs>
    <style>
      .cls-1 {
        fill: #111;
      }
    </style>
  </defs>
  <path class="cls-1" d="m16.26,24.97c.15.08.31.13.48.13s.33-.04.48-.13l5.68-3.28c.29-.17.48-.48.48-.82s-.18-.65-.48-.82l-5.68-3.28c-.29-.17-.66-.17-.95,0-.29.17-.48.48-.48.82v6.56c0,.34.18.65.48.82Z"/>
  <path class="cls-1" d="m35.89,14.84s-.04,0-.06,0h-2.97s-.08-.01-.12-.01c-.42,0-.76.34-.76.76,0,9.45-5.1,15.1-13.64,15.1-6.59,0-13.64-3.97-13.64-15.1,0-.42-.34-.76-.76-.76s-.76.34-.76.76c0,10.1,5.95,16.62,15.16,16.62,4.47,0,8.24-1.45,10.89-4.2,2.65-2.75,4.11-6.76,4.25-11.64h2.28c1.04,0,1.89.85,1.89,1.89s-.85,1.89-1.89,1.89c-.34,0-.68-.09-.97-.27-.36-.22-.83-.1-1.04.26-.22.36-.1.83.26,1.04.53.32,1.13.48,1.75.48,1.88,0,3.41-1.53,3.41-3.41s-1.47-3.34-3.29-3.41Z"/>
</svg>