<?xml version="1.0" encoding="utf-8"?>
<!-- Generator: Adobe Illustrator 27.5.0, SVG Export Plug-In . SVG Version: 6.00 Build 0)  -->
<svg version="1.1" id="_레이어_1" xmlns="http://www.w3.org/2000/svg" xmlns:xlink="http://www.w3.org/1999/xlink" x="0px"
	 y="0px" viewBox="0 0 40 40" style="enable-background:new 0 0 40 40;" xml:space="preserve">
<style type="text/css">
	.st0{fill:#111111;}
</style>
<path class="st0" d="M36.9,14.8C36.9,14.8,36.8,14.8,36.9,14.8H34c0,0-0.1,0-0.1,0c-0.4,0-0.7,0.3-0.7,0.7C33.1,24.6,28.2,30,20,30
	C13.7,30,7,26.2,7,15.5c0-0.4-0.3-0.7-0.7-0.7s-0.7,0.3-0.7,0.7c0,9.7,5.7,15.9,14.5,15.9c4.3,0,7.9-1.4,10.4-4s3.9-6.5,4.1-11.2
	h2.2c1,0,1.8,0.8,1.8,1.8c0,1-0.8,1.8-1.8,1.8c-0.3,0-0.7-0.1-0.9-0.3c-0.3-0.2-0.8-0.1-1,0.2c-0.2,0.3-0.1,0.8,0.2,1
	c0.5,0.3,1.1,0.5,1.7,0.5c1.8,0,3.3-1.5,3.3-3.3C40,16.3,38.6,14.9,36.9,14.8L36.9,14.8z"/>
</svg>
