<?xml version="1.0" encoding="UTF-8"?>
<svg id="_레이어_1" data-name="레이어 1" xmlns="http://www.w3.org/2000/svg" viewBox="0 0 104.05 57.41">
  <defs>
    <style>
      .cls-1 {
        fill: #383332;
      }
    </style>
  </defs>
  <path class="cls-1" d="m100.62,2.94c-13.46-9.96-22.75,8.04-27.26,14.77l-.7,1.08c.5-2.77.52-7.62-4.34-10.46-8.2-4.79-16.87,1.94-25.22,13.62l-.89,1.37c.17-1.08.1-2.83-1.69-4.11C29.7,12.86,28.53,40.39,0,46.71c10.65,5.6,19.33-2.85,21.76,1.44,1.66,2.95,0,6.6,0,6.6,12.51,0,21.68-15.12,25.78-5.16,1.6,3.88,0,7.82,0,7.82,12.51,0,25.33-23.81,32.18-13.07,3.21,5.03-1.5,13.07-1.5,13.07,17.16-14.85,33-46.62,22.39-54.47Z"/>
</svg>