<?xml version="1.0" encoding="utf-8"?>
<!-- Generator: Adobe Illustrator 27.5.0, SVG Export Plug-In . SVG Version: 6.00 Build 0)  -->
<svg version="1.1" id="_레이어_1" xmlns="http://www.w3.org/2000/svg" xmlns:xlink="http://www.w3.org/1999/xlink" x="0px"
	 y="0px" viewBox="0 0 40 40" style="enable-background:new 0 0 40 40;" xml:space="preserve">
<style type="text/css">
	.st0{fill:#FFFFFF;}
</style>
<path class="st0" d="M16.3,25c0.1,0.1,0.3,0.1,0.5,0.1s0.3,0,0.5-0.1l5.7-3.3c0.3-0.2,0.5-0.5,0.5-0.8s-0.2-0.6-0.5-0.8l-5.7-3.3
	c-0.3-0.2-0.7-0.2-1,0c-0.3,0.2-0.5,0.5-0.5,0.8v6.6C15.8,24.5,16,24.8,16.3,25L16.3,25z"/>
<path class="st0" d="M35.9,14.8C35.9,14.8,35.8,14.8,35.9,14.8h-3c0,0-0.1,0-0.1,0c-0.4,0-0.8,0.3-0.8,0.8c0,9.5-5.1,15.1-13.6,15.1
	c-6.6,0-13.6-4-13.6-15.1c0-0.4-0.3-0.8-0.8-0.8s-0.8,0.3-0.8,0.8c0,10.1,5.9,16.6,15.2,16.6c4.5,0,8.2-1.4,10.9-4.2
	s4.1-6.8,4.2-11.6h2.3c1,0,1.9,0.9,1.9,1.9s-0.8,1.9-1.9,1.9c-0.3,0-0.7-0.1-1-0.3c-0.4-0.2-0.8-0.1-1,0.3c-0.2,0.4-0.1,0.8,0.3,1
	c0.5,0.3,1.1,0.5,1.8,0.5c1.9,0,3.4-1.5,3.4-3.4S37.7,14.9,35.9,14.8L35.9,14.8z"/>
</svg>
