<?xml version="1.0" standalone="no"?>
<!DOCTYPE svg PUBLIC "-//W3C//DTD SVG 20010904//EN"
 "http://www.w3.org/TR/2001/REC-SVG-20010904/DTD/svg10.dtd">
<svg version="1.0" xmlns="http://www.w3.org/2000/svg"
 width="400.000000pt" height="400.000000pt" viewBox="0 0 400.000000 400.000000"
 preserveAspectRatio="xMidYMid meet">
<metadata>
Created by potrace 1.14, written by Peter Selinger 2001-2017
</metadata>
<g transform="translate(0.000000,400.000000) scale(0.100000,-0.100000)"
fill="#000000" stroke="none">
<path d="M2230 3665 c0 -112 1 -115 23 -116 97 -4 467 -3 468 1 1 3 3 56 4
118 l2 112 -249 0 -248 0 0 -115z"/>
<path d="M2230 3231 l0 -120 365 1 365 0 1 39 c0 21 1 55 1 74 0 19 -1 55 -1
80 l-1 45 -365 0 -365 0 0 -119z"/>
<path d="M589 3033 c-1 -4 -2 -169 -3 -365 l-1 -358 -106 -106 -107 -107 -181
1 -181 0 0 -119 0 -119 229 0 229 0 176 177 176 177 0 228 c0 125 1 228 3 228
2 0 23 -10 48 -22 24 -11 129 -61 233 -110 l189 -88 468 0 c368 0 469 3 470
13 1 6 2 59 3 117 l1 105 490 1 490 2 173 -174 c94 -96 172 -176 172 -177 0
-2 -78 -2 -172 -2 -95 1 -179 -3 -185 -8 -7 -5 -13 -5 -13 -1 0 12 -936 12
-947 1 -4 -5 -9 -58 -9 -118 l-2 -109 32 -1 c17 0 203 -1 414 -1 l382 0 0
-118 0 -117 -402 -1 c-222 0 -408 -1 -415 -1 -9 -1 -13 -35 -15 -118 l-3 -116
-1105 -1 -1105 -1 -3 -117 -3 -118 1111 0 1110 0 0 115 c0 85 3 115 13 117 6
0 171 2 366 2 l354 2 346 -349 c190 -192 348 -350 350 -353 2 -2 -317 -4 -711
-4 l-715 0 1 115 c1 68 -3 116 -9 118 -5 1 -428 3 -940 2 l-930 0 0 -355 0
-355 -172 3 -173 3 0 -119 0 -119 1993 1 1992 1 3 117 3 118 -285 0 -285 0 -3
118 -3 117 288 -1 287 -2 0 119 0 118 -346 348 c-190 191 -349 357 -353 368
-4 11 -7 119 -6 240 l0 220 290 2 c160 1 296 2 303 2 9 1 12 32 12 119 l0 117
-297 295 -298 295 -530 -1 c-291 -2 -533 -3 -537 -3 -4 -1 -9 -54 -10 -118
l-3 -117 -445 1 -445 1 -93 46 c-51 25 -94 46 -97 46 -2 0 -59 26 -127 58 -68
33 -143 68 -168 80 -61 27 -243 114 -252 119 -5 2 -8 1 -9 -4z m936 -2348 l0
-235 -470 -2 -470 -3 0 236 0 237 470 0 470 1 0 -234z m710 115 l0 -115 487 0
c267 0 483 -2 479 -5 -4 -3 -7 -56 -6 -117 l1 -113 -721 0 -720 0 2 222 c1
122 4 227 7 234 4 10 57 13 238 11 l232 -2 1 -115z"/>
</g>
</svg>
