<?xml version="1.0" standalone="no"?>
<!DOCTYPE svg PUBLIC "-//W3C//DTD SVG 20010904//EN"
 "http://www.w3.org/TR/2001/REC-SVG-20010904/DTD/svg10.dtd">
<svg version="1.0" xmlns="http://www.w3.org/2000/svg"
 width="700.000000pt" height="700.000000pt" viewBox="0 0 700.000000 700.000000"
 preserveAspectRatio="xMidYMid meet">
<metadata>
Created by potrace 1.14, written by Peter Selinger 2001-2017
</metadata>
<g transform="translate(0.000000,700.000000) scale(0.100000,-0.100000)"
fill="#000000" stroke="none">
<path d="M627 4387 c-59 -33 -71 -66 -70 -189 2 -197 33 -529 58 -618 2 -8 7
-35 10 -59 11 -78 65 -282 111 -419 53 -160 101 -274 168 -402 27 -52 54 -105
60 -117 6 -13 14 -23 19 -23 4 0 7 -5 7 -10 0 -17 116 -186 194 -283 172 -214
382 -397 612 -535 277 -166 595 -281 904 -328 25 -3 52 -8 60 -9 23 -4 136
-17 222 -24 173 -15 538 -2 688 24 14 2 43 7 65 10 42 5 71 11 115 20 14 3 34
7 45 9 92 18 295 80 409 126 629 251 1077 714 1331 1375 56 144 114 344 141
480 2 11 8 43 14 70 5 28 12 66 15 85 3 19 7 46 10 60 7 38 13 93 30 260 3 30
7 94 9 142 3 48 7 91 9 95 6 9 437 9 473 0 46 -11 112 -49 151 -88 144 -139
131 -368 -27 -493 -104 -83 -231 -92 -370 -27 -56 26 -96 26 -137 1 -46 -27
-66 -73 -61 -132 6 -54 30 -81 102 -116 271 -131 595 -43 759 206 244 370 21
859 -418 919 -97 13 -626 9 -661 -5 -16 -7 -39 -28 -52 -46 -21 -30 -24 -48
-27 -167 -6 -184 -15 -317 -30 -419 -2 -14 -7 -45 -10 -70 -3 -25 -8 -52 -10
-60 -2 -8 -7 -35 -10 -60 -5 -38 -26 -134 -40 -190 -3 -8 -9 -35 -15 -60 -76
-317 -247 -661 -456 -916 -231 -282 -544 -501 -892 -624 -91 -33 -318 -94
-387 -104 -35 -6 -65 -11 -128 -22 -105 -19 -543 -26 -677 -12 -215 24 -395
62 -580 125 -643 218 -1103 671 -1347 1328 -50 135 -101 320 -129 470 -4 22
-9 47 -10 55 -2 8 -6 38 -9 65 -3 28 -8 57 -10 65 -2 8 -6 47 -10 85 -3 39 -8
90 -10 115 -3 25 -7 114 -10 198 -3 108 -9 163 -20 186 -30 62 -116 89 -178
53z"/>
<path d="M2885 4083 c-36 -9 -87 -55 -105 -94 -15 -36 -17 -91 -16 -652 l1
-612 22 -35 c12 -20 40 -46 61 -58 64 -36 126 -28 217 27 17 10 224 129 460
266 237 136 450 260 476 276 102 64 120 191 37 265 -22 21 -316 194 -580 342
-18 10 -121 70 -228 132 -262 153 -277 159 -345 143z"/>
</g>
</svg>
