<?xml version="1.0" encoding="utf-8"?>
<!-- Generator: Adobe Illustrator 27.5.0, SVG Export Plug-In . SVG Version: 6.00 Build 0)  -->
<svg version="1.1" id="_레이어_1" xmlns="http://www.w3.org/2000/svg" xmlns:xlink="http://www.w3.org/1999/xlink" x="0px"
	 y="0px" viewBox="0 0 24 24" style="enable-background:new 0 0 24 24;" xml:space="preserve">
<style type="text/css">
	.st0{fill:#111111;}
</style>
<path class="st0" d="M1.8,4.8l3,0.7l0.9,2.8l-2.2,0C3,8.3,2.6,8.8,2.6,9.3C3,11.7,4.8,18,12.2,18c7.4,0.1,9.2-6.2,9.6-8.6
	C21.8,9,21.5,8.5,21,8.5l-2.8,0l-2.5,0l-6-0.1H9.2L7.3,3.3L2.5,2c-0.1,0-0.6-0.2-1.1,0C1.1,2.2,0.8,2.4,0.7,2.9
	C0.4,3.9,1.2,4.6,1.8,4.8L1.8,4.8z M17.1,9.9c0-0.2,0.2-0.4,0.5-0.3l1.7,0.3c0.2,0,0.4,0.2,0.3,0.5L19.3,12c0,0.2-0.2,0.4-0.5,0.3
	L17.2,12c-0.2,0-0.4-0.2-0.3-0.5C16.8,11.6,17.1,9.9,17.1,9.9z M13.3,14.5l0.9-2c0.1-0.3,0.5-0.5,0.8-0.3l2,0.9
	c0.3,0.1,0.5,0.5,0.3,0.8l-0.9,2c-0.1,0.3-0.5,0.5-0.8,0.3l-2-0.9C13.3,15.2,13.2,14.8,13.3,14.5z M1.7,3.2c0-0.1,0.1-0.2,0.1-0.2
	c0.1,0,0.2,0,0.3,0l4.3,1.1l1.5,4.2H7.7l-0.8,0L5.6,4.6L2.1,3.8C2.1,3.8,1.6,3.6,1.7,3.2L1.7,3.2z"/>
</svg>
