<?xml version="1.0" encoding="utf-8"?>
<!-- Generator: Adobe Illustrator 27.5.0, SVG Export Plug-In . SVG Version: 6.00 Build 0)  -->
<svg version="1.1" id="_레이어_1" xmlns="http://www.w3.org/2000/svg" xmlns:xlink="http://www.w3.org/1999/xlink" x="0px"
	 y="0px" viewBox="0 0 40 40" style="enable-background:new 0 0 40 40;" xml:space="preserve">
<style type="text/css">
	.st0{fill:#111111;}
</style>
<g>
	<path class="st0" d="M8.7,26.1c0.2,0,0.4,0,0.6,0c7.3,0,14.6,0,22,0c0.2,0,0.2,0.1,0.2-0.2c0-1.4,0-2.6,0-4c0-0.3,0-0.3-0.2-0.3H20
		c-0.8,0-1.6,0-2.4,0c-2.9,0-5.9,0-8.9,0c-0.2,0-0.2,0.1-0.2,0.2c0,0.6,0,1,0,1.6c0,0.8,0,1.6,0,2.5C8.5,26.1,8.5,26.1,8.7,26.1
		L8.7,26.1z"/>
	<path class="st0" d="M8.8,20.7c0.7,0,1.4,0,2.1,0c2.9,0,6,0,9,0c3.8,0,7.7,0,11.5,0c0.1,0,0.2,0,0.2-0.2c0-1.4,0-2.7,0-4.1
		c0-0.2-0.1-0.2-0.2-0.2c-0.2,0-0.3,0-0.6,0c-3.6,0-7.2,0-10.7,0c-3.4,0-6.8,0-10.3,0c-0.3,0-0.7,0-1,0c-0.1,0-0.2,0-0.2,0.2
		c0,1.4,0,2.7,0,4.1C8.5,20.6,8.6,20.7,8.8,20.7L8.8,20.7z"/>
	<path class="st0" d="M31.4,15.3c0.2,0,0.2,0,0.2-0.2c0-0.9-0.2-1.8-0.6-2.6c-0.6-1.6-1.6-2.9-2.8-4c0,0-0.2-0.1-0.2,0
		c-1,0.3-1.8,0.6-2.8,1c-0.1,0-0.2,0.1-0.1,0.2c0.2,0.6,0.2,1,0.1,1.6c-0.4,2.1-2.9,3.3-4.8,2.1c-0.6-0.3-1-0.9-1.3-1.5
		c-0.1-0.2-0.1-0.2-0.2-0.2c-0.3,0.1-0.6,0.2-0.9,0.3c-1.4,0.5-2.7,1-4.1,1.4c-1.5,0.6-3,1-4.5,1.6l-0.8,0.3v0.1
		C15.9,15.3,24.1,15.3,31.4,15.3L31.4,15.3z"/>
	<path class="st0" d="M21.2,8.4c0,0,0,0.2-0.1,0.2c-0.8,0.4-1.2,1-1.2,2c0,1.2,1,2.2,2.2,2.2c1.4,0,2.5-1.3,2.2-2.6
		c-0.2-1-1-1.7-2.1-1.8c-0.1,0-0.2,0-0.2-0.1c-0.2-0.6-0.6-1.2-1-1.8s-0.9-1-1.4-1.4C19.5,5,19.4,5,19.1,5c-0.2,0.1-0.2,0.2-0.2,0.5
		c0,0.2,0.2,0.2,0.2,0.4C20.1,6.6,20.8,7.4,21.2,8.4L21.2,8.4z"/>
</g>
</svg>
