<?xml version="1.0" encoding="utf-8"?>
<!-- Generator: Adobe Illustrator 27.5.0, SVG Export Plug-In . SVG Version: 6.00 Build 0)  -->
<svg version="1.1" id="_레이어_1" xmlns="http://www.w3.org/2000/svg" xmlns:xlink="http://www.w3.org/1999/xlink" x="0px"
	 y="0px" viewBox="0 0 24 24" style="enable-background:new 0 0 24 24;" xml:space="preserve">
<style type="text/css">
	.st0{fill:#111111;}
</style>
<path class="st0" d="M8,10.4h0.6l1.4,4.9c0.1,0.4,0.5,0.7,0.9,0.7h2.2l-1.6-5.4l3.9,2.2c0.1,0.1,0.3,0.1,0.5,0.1s0.3-0.1,0.5-0.1
	c0.3-0.2,0.5-0.5,0.5-0.9l-0.1-7.1c0-0.4-0.2-0.7-0.5-0.9c-0.3-0.2-0.7-0.2-1,0l-4.1,2.5c0,0-0.1,0-0.1,0L8,6.3c-0.5,0-1,0.5-1,1
	v2.1C7,9.9,7.5,10.4,8,10.4L8,10.4z"/>
</svg>
