<?xml version="1.0" encoding="utf-8"?>
<!-- Generator: Adobe Illustrator 27.5.0, SVG Export Plug-In . SVG Version: 6.00 Build 0)  -->
<svg version="1.1" id="_레이어_1" xmlns="http://www.w3.org/2000/svg" xmlns:xlink="http://www.w3.org/1999/xlink" x="0px"
	 y="0px" viewBox="0 0 24 24" style="enable-background:new 0 0 24 24;" xml:space="preserve">
<style type="text/css">
	.st0{fill:#111111;}
</style>
<g>
	<path class="st0" d="M8.2,9.1c0.8,0,1.5-1,1.5-2.3S9.1,4.6,8.2,4.6c-0.9,0-1.5,1-1.5,2.3S7.3,9.1,8.2,9.1z"/>
	<path class="st0" d="M15.8,9.1c0.8,0,1.5-1,1.5-2.3s-0.7-2.3-1.5-2.3s-1.5,1-1.5,2.3S14.9,9.1,15.8,9.1z"/>
	<path class="st0" d="M8.4,11.2c0-0.4-0.3-0.6-0.6-0.6c-0.3,0-0.6,0.3-0.6,0.6c0,2.9,1.8,4.7,5,4.7s5-1.8,5-4.7
		c0-0.4-0.3-0.6-0.6-0.6c-0.4,0-0.6,0.3-0.6,0.6c0,2.2-1.3,3.4-3.8,3.4S8.4,13.4,8.4,11.2z"/>
</g>
</svg>
