<?xml version="1.0" encoding="utf-8"?>
<!-- Generator: Adobe Illustrator 27.5.0, SVG Export Plug-In . SVG Version: 6.00 Build 0)  -->
<svg version="1.1" id="_레이어_1" xmlns="http://www.w3.org/2000/svg" xmlns:xlink="http://www.w3.org/1999/xlink" x="0px"
	 y="0px" viewBox="0 0 24 24" style="enable-background:new 0 0 24 24;" xml:space="preserve">
<style type="text/css">
	.st0{fill:#111111;}
</style>
<path class="st0" d="M12.4,18c7.4,0.1,9.2-6.1,9.6-8.5c0.1-0.5-0.3-1-0.9-1h-2.8h-2.6L9.9,8.3h-2H3.6c-0.5,0-1,0.5-0.9,1
	C3.3,11.7,5.1,17.9,12.4,18z M10,11.8l1.4-0.2c0.1,0,0.2-0.1,0.2-0.1l0.6-1.2c0.1-0.2,0.4-0.2,0.5,0l0.7,1.2c0,0.1,0.1,0.1,0.2,0.1
	l1.4,0.2c0.2,0,0.3,0.3,0.2,0.4l-1.1,1.1c-0.1,0.1-0.1,0.1-0.1,0.2l0.3,1.4c0,0.2-0.2,0.4-0.4,0.3l-1.2-0.7c-0.1,0-0.2,0-0.2,0
	l-1.2,0.7c-0.2,0.1-0.4-0.1-0.4-0.3l0.2-1.4c0-0.1,0-0.2-0.1-0.2l-1.1-1C9.8,12,9.9,11.9,10,11.8L10,11.8z"/>
</svg>
