<?xml version="1.0" encoding="utf-8"?>
<!-- Generator: Adobe Illustrator 27.5.0, SVG Export Plug-In . SVG Version: 6.00 Build 0)  -->
<svg version="1.1" id="_레이어_1" xmlns="http://www.w3.org/2000/svg" xmlns:xlink="http://www.w3.org/1999/xlink" x="0px"
	 y="0px" viewBox="0 0 24 24" style="enable-background:new 0 0 24 24;" xml:space="preserve">
<style type="text/css">
	.st0{fill:#111111;}
</style>
<path class="st0" d="M7.9,6.4L7.9,6.4C8,6.5,8,6.5,8,6.6c0.2,0.7,0.3,1.5,0.8,2C9,8.8,9.1,8.9,9.3,9.1c0.3,0.2,0.6,0.4,0.9,0.6
	c0.2,0.1,0.3,0.2,0.3,0.3c0,0.2-0.1,0.3-0.2,0.4c-0.5,0.4-0.9,0.9-1.1,1.6C9.1,12.6,9,13,9,13.5c0,0.3,0,0.6,0.1,1
	c-0.1,0-0.2,0-0.3,0.1c-0.1,0.1-0.3,0.3-0.2,0.5c0,0.1,0,0.3,0.1,0.4l8.1-1.1c0-0.1,0-0.2-0.1-0.4c-0.1-0.4-0.3-0.6-0.6-0.4l-0.1,0
	c0-0.2-0.1-0.4-0.2-0.7c-0.1-0.2-0.1-0.5-0.3-0.8c-0.1-0.4-0.4-0.8-0.7-1.1c-0.3-0.3-0.5-0.5-0.9-0.7c-0.2-0.1-0.3-0.2-0.5-0.3
	c-0.2-0.1-0.2-0.4-0.1-0.4C13.7,9.2,14,9,14.2,8.6c0.3-0.3,0.4-0.7,0.5-1.2c0.2-0.5,0.1-0.9,0.2-1.3c0-0.1,0-0.2-0.1-0.4
	c0-0.1,0-0.2,0-0.3c0.1,0,0.2,0,0.3-0.1c0.2-0.1,0.3-0.3,0.2-0.5c0-0.1,0-0.2-0.1-0.4L7.2,5.6c0,0.1,0,0.2,0.1,0.4
	C7.3,6.2,7.6,6.4,7.9,6.4L7.9,6.4z M14.1,5.6c0,0.1,0,0.3,0.1,0.4c0,0.2,0,0.5,0,0.8c-0.1,0.5-0.2,1-0.6,1.4
	c-0.2,0.3-0.4,0.6-0.7,0.9c-0.3,0.3-0.3,0.7-0.2,1.1c0.1,0.2,0.3,0.4,0.5,0.5c0.4,0.3,0.9,0.6,1.2,1c0.3,0.3,0.5,0.6,0.5,1
	c0.1,0.3,0.2,0.6,0.2,0.9c0,0.1,0,0.1,0,0.1l-1,0.1c0-0.1,0-0.2-0.1-0.4c-0.1-0.4-0.3-0.8-0.6-1.1c-0.2-0.2-0.4-0.4-0.6-0.6
	c-0.3-0.2-0.5-0.5-0.6-0.7c-0.1-0.2-0.1-0.4-0.1-0.7c0-0.2,0-0.5,0.1-0.7c0.1-0.2,0.2-0.4,0.3-0.6c0.1-0.2,0.3-0.4,0.4-0.7
	C13,8.3,13,8.2,13.1,8l-2.6,0.4c0,0.2,0.1,0.4,0.3,0.5c0.3,0.3,0.6,0.5,0.8,0.9c0.1,0.2,0.3,0.5,0.3,0.8c0,0.2,0.1,0.4,0.1,0.5
	c0,0.3-0.2,0.5-0.3,0.7c-0.2,0.4-0.4,0.7-0.7,1.1c-0.2,0.3-0.3,0.7-0.2,1c0,0.1,0,0.2,0,0.4l-1,0.1c0-0.1,0-0.3-0.1-0.4
	c0-0.3,0-0.5,0-0.8c0.1-0.4,0.2-0.8,0.5-1.1c0.3-0.3,0.5-0.6,0.8-0.9c0.2-0.3,0.3-0.6,0.3-0.9c0-0.2-0.1-0.4-0.3-0.6
	c-0.3-0.3-0.6-0.4-0.9-0.7C9.8,8.6,9.6,8.4,9.4,8.1C9.2,7.7,9,7.4,8.9,6.9C8.7,6.7,8.7,6.4,8.7,6.2C8.7,6.3,14.1,5.6,14.1,5.6z"/>
</svg>
